%TF.GenerationSoftware,KiCad,Pcbnew,(6.0.10-0)*%
%TF.CreationDate,2023-01-27T21:07:09+01:00*%
%TF.ProjectId,openDTU_wDisplay,6f70656e-4454-4555-9f77-446973706c61,rev?*%
%TF.SameCoordinates,Original*%
%TF.FileFunction,Copper,L2,Bot*%
%TF.FilePolarity,Positive*%
%FSLAX46Y46*%
G04 Gerber Fmt 4.6, Leading zero omitted, Abs format (unit mm)*
G04 Created by KiCad (PCBNEW (6.0.10-0)) date 2023-01-27 21:07:09*
%MOMM*%
%LPD*%
G01*
G04 APERTURE LIST*
%ADD10C,0.300000*%
%TA.AperFunction,NonConductor*%
%ADD11C,0.300000*%
%TD*%
%TA.AperFunction,ComponentPad*%
%ADD12R,1.700000X1.700000*%
%TD*%
%TA.AperFunction,ComponentPad*%
%ADD13C,1.700000*%
%TD*%
%TA.AperFunction,ComponentPad*%
%ADD14C,1.600000*%
%TD*%
%TA.AperFunction,ComponentPad*%
%ADD15O,1.600000X1.600000*%
%TD*%
%TA.AperFunction,ComponentPad*%
%ADD16O,1.700000X1.700000*%
%TD*%
%TA.AperFunction,Conductor*%
%ADD17C,0.250000*%
%TD*%
G04 APERTURE END LIST*
D10*
D11*
X159507071Y-73031714D02*
X160721357Y-73031714D01*
X160864214Y-72960285D01*
X160935642Y-72888857D01*
X161007071Y-72746000D01*
X161007071Y-72531714D01*
X160935642Y-72388857D01*
X160435642Y-73031714D02*
X160507071Y-72888857D01*
X160507071Y-72603142D01*
X160435642Y-72460285D01*
X160364214Y-72388857D01*
X160221357Y-72317428D01*
X159792785Y-72317428D01*
X159649928Y-72388857D01*
X159578500Y-72460285D01*
X159507071Y-72603142D01*
X159507071Y-72888857D01*
X159578500Y-73031714D01*
X160507071Y-73746000D02*
X159507071Y-73746000D01*
X159007071Y-73746000D02*
X159078500Y-73674571D01*
X159149928Y-73746000D01*
X159078500Y-73817428D01*
X159007071Y-73746000D01*
X159149928Y-73746000D01*
X159507071Y-74246000D02*
X159507071Y-74817428D01*
X159007071Y-74460285D02*
X160292785Y-74460285D01*
X160435642Y-74531714D01*
X160507071Y-74674571D01*
X160507071Y-74817428D01*
X160507071Y-75317428D02*
X159007071Y-75317428D01*
X160507071Y-75960285D02*
X159721357Y-75960285D01*
X159578500Y-75888857D01*
X159507071Y-75746000D01*
X159507071Y-75531714D01*
X159578500Y-75388857D01*
X159649928Y-75317428D01*
X159507071Y-77317428D02*
X160507071Y-77317428D01*
X159507071Y-76674571D02*
X160292785Y-76674571D01*
X160435642Y-76746000D01*
X160507071Y-76888857D01*
X160507071Y-77103142D01*
X160435642Y-77246000D01*
X160364214Y-77317428D01*
X160507071Y-78031714D02*
X159007071Y-78031714D01*
X159578500Y-78031714D02*
X159507071Y-78174571D01*
X159507071Y-78460285D01*
X159578500Y-78603142D01*
X159649928Y-78674571D01*
X159792785Y-78746000D01*
X160221357Y-78746000D01*
X160364214Y-78674571D01*
X160435642Y-78603142D01*
X160507071Y-78460285D01*
X160507071Y-78174571D01*
X160435642Y-78031714D01*
X160364214Y-79388857D02*
X160435642Y-79460285D01*
X160507071Y-79388857D01*
X160435642Y-79317428D01*
X160364214Y-79388857D01*
X160507071Y-79388857D01*
X160435642Y-80746000D02*
X160507071Y-80603142D01*
X160507071Y-80317428D01*
X160435642Y-80174571D01*
X160364214Y-80103142D01*
X160221357Y-80031714D01*
X159792785Y-80031714D01*
X159649928Y-80103142D01*
X159578500Y-80174571D01*
X159507071Y-80317428D01*
X159507071Y-80603142D01*
X159578500Y-80746000D01*
X160507071Y-81603142D02*
X160435642Y-81460285D01*
X160364214Y-81388857D01*
X160221357Y-81317428D01*
X159792785Y-81317428D01*
X159649928Y-81388857D01*
X159578500Y-81460285D01*
X159507071Y-81603142D01*
X159507071Y-81817428D01*
X159578500Y-81960285D01*
X159649928Y-82031714D01*
X159792785Y-82103142D01*
X160221357Y-82103142D01*
X160364214Y-82031714D01*
X160435642Y-81960285D01*
X160507071Y-81817428D01*
X160507071Y-81603142D01*
X160507071Y-82746000D02*
X159507071Y-82746000D01*
X159649928Y-82746000D02*
X159578500Y-82817428D01*
X159507071Y-82960285D01*
X159507071Y-83174571D01*
X159578500Y-83317428D01*
X159721357Y-83388857D01*
X160507071Y-83388857D01*
X159721357Y-83388857D02*
X159578500Y-83460285D01*
X159507071Y-83603142D01*
X159507071Y-83817428D01*
X159578500Y-83960285D01*
X159721357Y-84031714D01*
X160507071Y-84031714D01*
X158935642Y-85817428D02*
X160864214Y-84531714D01*
X160435642Y-86246000D02*
X160507071Y-86460285D01*
X160507071Y-86817428D01*
X160435642Y-86960285D01*
X160364214Y-87031714D01*
X160221357Y-87103142D01*
X160078500Y-87103142D01*
X159935642Y-87031714D01*
X159864214Y-86960285D01*
X159792785Y-86817428D01*
X159721357Y-86531714D01*
X159649928Y-86388857D01*
X159578500Y-86317428D01*
X159435642Y-86246000D01*
X159292785Y-86246000D01*
X159149928Y-86317428D01*
X159078500Y-86388857D01*
X159007071Y-86531714D01*
X159007071Y-86888857D01*
X159078500Y-87103142D01*
X159507071Y-87531714D02*
X159507071Y-88103142D01*
X159007071Y-87746000D02*
X160292785Y-87746000D01*
X160435642Y-87817428D01*
X160507071Y-87960285D01*
X160507071Y-88103142D01*
X160435642Y-89174571D02*
X160507071Y-89031714D01*
X160507071Y-88746000D01*
X160435642Y-88603142D01*
X160292785Y-88531714D01*
X159721357Y-88531714D01*
X159578500Y-88603142D01*
X159507071Y-88746000D01*
X159507071Y-89031714D01*
X159578500Y-89174571D01*
X159721357Y-89246000D01*
X159864214Y-89246000D01*
X160007071Y-88531714D01*
X159507071Y-89674571D02*
X159507071Y-90246000D01*
X160507071Y-89888857D02*
X159221357Y-89888857D01*
X159078500Y-89960285D01*
X159007071Y-90103142D01*
X159007071Y-90246000D01*
X159507071Y-90531714D02*
X159507071Y-91103142D01*
X160507071Y-90746000D02*
X159221357Y-90746000D01*
X159078500Y-90817428D01*
X159007071Y-90960285D01*
X159007071Y-91103142D01*
X160507071Y-91603142D02*
X159007071Y-91603142D01*
X160078500Y-92103142D01*
X159007071Y-92603142D01*
X160507071Y-92603142D01*
X159007071Y-93317428D02*
X160221357Y-93317428D01*
X160364214Y-93388857D01*
X160435642Y-93460285D01*
X160507071Y-93603142D01*
X160507071Y-93888857D01*
X160435642Y-94031714D01*
X160364214Y-94103142D01*
X160221357Y-94174571D01*
X159007071Y-94174571D01*
X160364214Y-95746000D02*
X160435642Y-95674571D01*
X160507071Y-95460285D01*
X160507071Y-95317428D01*
X160435642Y-95103142D01*
X160292785Y-94960285D01*
X160149928Y-94888857D01*
X159864214Y-94817428D01*
X159649928Y-94817428D01*
X159364214Y-94888857D01*
X159221357Y-94960285D01*
X159078500Y-95103142D01*
X159007071Y-95317428D01*
X159007071Y-95460285D01*
X159078500Y-95674571D01*
X159149928Y-95746000D01*
X158935642Y-97460285D02*
X160864214Y-96174571D01*
X160507071Y-98174571D02*
X160435642Y-98031714D01*
X160364214Y-97960285D01*
X160221357Y-97888857D01*
X159792785Y-97888857D01*
X159649928Y-97960285D01*
X159578500Y-98031714D01*
X159507071Y-98174571D01*
X159507071Y-98388857D01*
X159578500Y-98531714D01*
X159649928Y-98603142D01*
X159792785Y-98674571D01*
X160221357Y-98674571D01*
X160364214Y-98603142D01*
X160435642Y-98531714D01*
X160507071Y-98388857D01*
X160507071Y-98174571D01*
X159507071Y-99317428D02*
X161007071Y-99317428D01*
X159578500Y-99317428D02*
X159507071Y-99460285D01*
X159507071Y-99746000D01*
X159578500Y-99888857D01*
X159649928Y-99960285D01*
X159792785Y-100031714D01*
X160221357Y-100031714D01*
X160364214Y-99960285D01*
X160435642Y-99888857D01*
X160507071Y-99746000D01*
X160507071Y-99460285D01*
X160435642Y-99317428D01*
X160435642Y-101246000D02*
X160507071Y-101103142D01*
X160507071Y-100817428D01*
X160435642Y-100674571D01*
X160292785Y-100603142D01*
X159721357Y-100603142D01*
X159578500Y-100674571D01*
X159507071Y-100817428D01*
X159507071Y-101103142D01*
X159578500Y-101246000D01*
X159721357Y-101317428D01*
X159864214Y-101317428D01*
X160007071Y-100603142D01*
X159507071Y-101960285D02*
X160507071Y-101960285D01*
X159649928Y-101960285D02*
X159578500Y-102031714D01*
X159507071Y-102174571D01*
X159507071Y-102388857D01*
X159578500Y-102531714D01*
X159721357Y-102603142D01*
X160507071Y-102603142D01*
X160507071Y-103317428D02*
X159007071Y-103317428D01*
X159007071Y-103674571D01*
X159078500Y-103888857D01*
X159221357Y-104031714D01*
X159364214Y-104103142D01*
X159649928Y-104174571D01*
X159864214Y-104174571D01*
X160149928Y-104103142D01*
X160292785Y-104031714D01*
X160435642Y-103888857D01*
X160507071Y-103674571D01*
X160507071Y-103317428D01*
X159007071Y-104603142D02*
X159007071Y-105460285D01*
X160507071Y-105031714D02*
X159007071Y-105031714D01*
X159007071Y-105960285D02*
X160221357Y-105960285D01*
X160364214Y-106031714D01*
X160435642Y-106103142D01*
X160507071Y-106246000D01*
X160507071Y-106531714D01*
X160435642Y-106674571D01*
X160364214Y-106746000D01*
X160221357Y-106817428D01*
X159007071Y-106817428D01*
X159507071Y-107388857D02*
X160507071Y-107674571D01*
X159792785Y-107960285D01*
X160507071Y-108246000D01*
X159507071Y-108531714D01*
X160507071Y-109103142D02*
X159007071Y-109103142D01*
X159007071Y-109460285D01*
X159078500Y-109674571D01*
X159221357Y-109817428D01*
X159364214Y-109888857D01*
X159649928Y-109960285D01*
X159864214Y-109960285D01*
X160149928Y-109888857D01*
X160292785Y-109817428D01*
X160435642Y-109674571D01*
X160507071Y-109460285D01*
X160507071Y-109103142D01*
X160507071Y-110603142D02*
X159507071Y-110603142D01*
X159007071Y-110603142D02*
X159078500Y-110531714D01*
X159149928Y-110603142D01*
X159078500Y-110674571D01*
X159007071Y-110603142D01*
X159149928Y-110603142D01*
X160435642Y-111246000D02*
X160507071Y-111388857D01*
X160507071Y-111674571D01*
X160435642Y-111817428D01*
X160292785Y-111888857D01*
X160221357Y-111888857D01*
X160078500Y-111817428D01*
X160007071Y-111674571D01*
X160007071Y-111460285D01*
X159935642Y-111317428D01*
X159792785Y-111246000D01*
X159721357Y-111246000D01*
X159578500Y-111317428D01*
X159507071Y-111460285D01*
X159507071Y-111674571D01*
X159578500Y-111817428D01*
X159507071Y-112531714D02*
X161007071Y-112531714D01*
X159578500Y-112531714D02*
X159507071Y-112674571D01*
X159507071Y-112960285D01*
X159578500Y-113103142D01*
X159649928Y-113174571D01*
X159792785Y-113246000D01*
X160221357Y-113246000D01*
X160364214Y-113174571D01*
X160435642Y-113103142D01*
X160507071Y-112960285D01*
X160507071Y-112674571D01*
X160435642Y-112531714D01*
X160507071Y-114103142D02*
X160435642Y-113960285D01*
X160292785Y-113888857D01*
X159007071Y-113888857D01*
X160507071Y-115317428D02*
X159721357Y-115317428D01*
X159578500Y-115246000D01*
X159507071Y-115103142D01*
X159507071Y-114817428D01*
X159578500Y-114674571D01*
X160435642Y-115317428D02*
X160507071Y-115174571D01*
X160507071Y-114817428D01*
X160435642Y-114674571D01*
X160292785Y-114603142D01*
X160149928Y-114603142D01*
X160007071Y-114674571D01*
X159935642Y-114817428D01*
X159935642Y-115174571D01*
X159864214Y-115317428D01*
X159507071Y-115888857D02*
X160507071Y-116246000D01*
X159507071Y-116603142D02*
X160507071Y-116246000D01*
X160864214Y-116103142D01*
X160935642Y-116031714D01*
X161007071Y-115888857D01*
X163422071Y-87210285D02*
X163422071Y-86853142D01*
X161279214Y-86853142D01*
X161279214Y-87210285D01*
X161564928Y-87710285D02*
X161493500Y-87781714D01*
X161422071Y-87924571D01*
X161422071Y-88281714D01*
X161493500Y-88424571D01*
X161564928Y-88496000D01*
X161707785Y-88567428D01*
X161850642Y-88567428D01*
X162064928Y-88496000D01*
X162922071Y-87638857D01*
X162922071Y-88567428D01*
X161422071Y-89496000D02*
X161422071Y-89638857D01*
X161493500Y-89781714D01*
X161564928Y-89853142D01*
X161707785Y-89924571D01*
X161993500Y-89996000D01*
X162350642Y-89996000D01*
X162636357Y-89924571D01*
X162779214Y-89853142D01*
X162850642Y-89781714D01*
X162922071Y-89638857D01*
X162922071Y-89496000D01*
X162850642Y-89353142D01*
X162779214Y-89281714D01*
X162636357Y-89210285D01*
X162350642Y-89138857D01*
X161993500Y-89138857D01*
X161707785Y-89210285D01*
X161564928Y-89281714D01*
X161493500Y-89353142D01*
X161422071Y-89496000D01*
X161564928Y-90567428D02*
X161493500Y-90638857D01*
X161422071Y-90781714D01*
X161422071Y-91138857D01*
X161493500Y-91281714D01*
X161564928Y-91353142D01*
X161707785Y-91424571D01*
X161850642Y-91424571D01*
X162064928Y-91353142D01*
X162922071Y-90496000D01*
X162922071Y-91424571D01*
X161422071Y-91924571D02*
X161422071Y-92853142D01*
X161993500Y-92353142D01*
X161993500Y-92567428D01*
X162064928Y-92710285D01*
X162136357Y-92781714D01*
X162279214Y-92853142D01*
X162636357Y-92853142D01*
X162779214Y-92781714D01*
X162850642Y-92710285D01*
X162922071Y-92567428D01*
X162922071Y-92138857D01*
X162850642Y-91996000D01*
X162779214Y-91924571D01*
X162350642Y-93496000D02*
X162350642Y-94638857D01*
X161422071Y-95638857D02*
X161422071Y-95781714D01*
X161493500Y-95924571D01*
X161564928Y-95996000D01*
X161707785Y-96067428D01*
X161993500Y-96138857D01*
X162350642Y-96138857D01*
X162636357Y-96067428D01*
X162779214Y-95996000D01*
X162850642Y-95924571D01*
X162922071Y-95781714D01*
X162922071Y-95638857D01*
X162850642Y-95496000D01*
X162779214Y-95424571D01*
X162636357Y-95353142D01*
X162350642Y-95281714D01*
X161993500Y-95281714D01*
X161707785Y-95353142D01*
X161564928Y-95424571D01*
X161493500Y-95496000D01*
X161422071Y-95638857D01*
X162922071Y-97567428D02*
X162922071Y-96710285D01*
X162922071Y-97138857D02*
X161422071Y-97138857D01*
X161636357Y-96996000D01*
X161779214Y-96853142D01*
X161850642Y-96710285D01*
X162350642Y-98210285D02*
X162350642Y-99353142D01*
X161564928Y-99996000D02*
X161493500Y-100067428D01*
X161422071Y-100210285D01*
X161422071Y-100567428D01*
X161493500Y-100710285D01*
X161564928Y-100781714D01*
X161707785Y-100853142D01*
X161850642Y-100853142D01*
X162064928Y-100781714D01*
X162922071Y-99924571D01*
X162922071Y-100853142D01*
X161422071Y-101353142D02*
X161422071Y-102353142D01*
X162922071Y-101710285D01*
X163422071Y-102781714D02*
X163422071Y-103138857D01*
X161279214Y-103138857D01*
X161279214Y-102781714D01*
D12*
%TO.P,NRF24L01+1,1,GND*%
%TO.N,GND*%
X116346000Y-108516000D03*
D13*
%TO.P,NRF24L01+1,2,VCC*%
%TO.N,PWR3x3*%
X116346000Y-105976000D03*
%TO.P,NRF24L01+1,3,CE*%
%TO.N,CE*%
X118886000Y-108516000D03*
%TO.P,NRF24L01+1,4,~{CSN}*%
%TO.N,~{CSN}*%
X118886000Y-105976000D03*
%TO.P,NRF24L01+1,5,SCK*%
%TO.N,SCK*%
X121426000Y-108516000D03*
%TO.P,NRF24L01+1,6,MOSI*%
%TO.N,MOSI*%
X121426000Y-105976000D03*
%TO.P,NRF24L01+1,7,MISO*%
%TO.N,MISO*%
X123966000Y-108516000D03*
%TO.P,NRF24L01+1,8,IRQ*%
%TO.N,IRQ*%
X123966000Y-105976000D03*
%TD*%
D12*
%TO.P,SSD1306,1,GND*%
%TO.N,GND*%
X139954000Y-77721000D03*
D13*
%TO.P,SSD1306,2,VCC*%
%TO.N,PWR3x3*%
X142494000Y-77721000D03*
%TO.P,SSD1306,3,SCL*%
%TO.N,SCL*%
X145034000Y-77721000D03*
%TO.P,SSD1306,4,SDA*%
%TO.N,SDA*%
X147574000Y-77721000D03*
%TO.P,SSD1306,5*%
%TO.N,N/C*%
X150114000Y-77721000D03*
%TO.P,SSD1306,6*%
X152654000Y-77721000D03*
%TO.P,SSD1306,7*%
X155194000Y-77721000D03*
%TO.P,SSD1306,8*%
X157734000Y-77721000D03*
%TD*%
D14*
%TO.P,C1,1*%
%TO.N,PWR3x3*%
X113598000Y-112776000D03*
D15*
%TO.P,C1,2*%
%TO.N,GND*%
X121098000Y-112776000D03*
%TD*%
D12*
%TO.P,ESP32NodeMCU1,1,3V3*%
%TO.N,PWR3x3*%
X83259500Y-70850000D03*
D16*
%TO.P,ESP32NodeMCU1,2,EN*%
%TO.N,unconnected-(ESP32NodeMCU1-Pad2)*%
X83259500Y-73390000D03*
%TO.P,ESP32NodeMCU1,3,SP*%
%TO.N,unconnected-(ESP32NodeMCU1-Pad3)*%
X83259500Y-75930000D03*
%TO.P,ESP32NodeMCU1,4,SN*%
%TO.N,unconnected-(ESP32NodeMCU1-Pad4)*%
X83259500Y-78470000D03*
%TO.P,ESP32NodeMCU1,5,G34*%
%TO.N,unconnected-(ESP32NodeMCU1-Pad5)*%
X83259500Y-81010000D03*
%TO.P,ESP32NodeMCU1,6,G35*%
%TO.N,unconnected-(ESP32NodeMCU1-Pad6)*%
X83259500Y-83550000D03*
%TO.P,ESP32NodeMCU1,7,G32*%
%TO.N,unconnected-(ESP32NodeMCU1-Pad7)*%
X83259500Y-86090000D03*
%TO.P,ESP32NodeMCU1,8,G33*%
%TO.N,unconnected-(ESP32NodeMCU1-Pad8)*%
X83259500Y-88630000D03*
%TO.P,ESP32NodeMCU1,9,G25*%
%TO.N,unconnected-(ESP32NodeMCU1-Pad9)*%
X83259500Y-91170000D03*
%TO.P,ESP32NodeMCU1,10,G26*%
%TO.N,unconnected-(ESP32NodeMCU1-Pad10)*%
X83259500Y-93710000D03*
%TO.P,ESP32NodeMCU1,11,G27*%
%TO.N,unconnected-(ESP32NodeMCU1-Pad11)*%
X83259500Y-96250000D03*
%TO.P,ESP32NodeMCU1,12,G14*%
%TO.N,unconnected-(ESP32NodeMCU1-Pad12)*%
X83259500Y-98790000D03*
%TO.P,ESP32NodeMCU1,13,G12*%
%TO.N,unconnected-(ESP32NodeMCU1-Pad13)*%
X83259500Y-101330000D03*
%TO.P,ESP32NodeMCU1,14,GND*%
%TO.N,GND*%
X83259500Y-103870000D03*
%TO.P,ESP32NodeMCU1,15,G13*%
%TO.N,unconnected-(ESP32NodeMCU1-Pad15)*%
X83259500Y-106410000D03*
%TO.P,ESP32NodeMCU1,16,SD2*%
%TO.N,unconnected-(ESP32NodeMCU1-Pad16)*%
X83259500Y-108950000D03*
%TO.P,ESP32NodeMCU1,17,SD3*%
%TO.N,unconnected-(ESP32NodeMCU1-Pad17)*%
X83259500Y-111490000D03*
%TO.P,ESP32NodeMCU1,18,CMD*%
%TO.N,unconnected-(ESP32NodeMCU1-Pad18)*%
X83259500Y-114030000D03*
%TO.P,ESP32NodeMCU1,19,5V*%
%TO.N,unconnected-(ESP32NodeMCU1-Pad19)*%
X83259500Y-116570000D03*
%TO.P,ESP32NodeMCU1,20,CLK*%
%TO.N,unconnected-(ESP32NodeMCU1-Pad20)*%
X108659500Y-116570000D03*
%TO.P,ESP32NodeMCU1,21,SD0*%
%TO.N,unconnected-(ESP32NodeMCU1-Pad21)*%
X108659500Y-114030000D03*
%TO.P,ESP32NodeMCU1,22,SD1*%
%TO.N,unconnected-(ESP32NodeMCU1-Pad22)*%
X108659500Y-111490000D03*
%TO.P,ESP32NodeMCU1,23,G15*%
%TO.N,unconnected-(ESP32NodeMCU1-Pad23)*%
X108659500Y-108950000D03*
%TO.P,ESP32NodeMCU1,24,G2*%
%TO.N,unconnected-(ESP32NodeMCU1-Pad24)*%
X108659500Y-106410000D03*
%TO.P,ESP32NodeMCU1,25,G0*%
%TO.N,unconnected-(ESP32NodeMCU1-Pad25)*%
X108659500Y-103870000D03*
%TO.P,ESP32NodeMCU1,26,G4*%
%TO.N,CE*%
X108659500Y-101330000D03*
%TO.P,ESP32NodeMCU1,27,G16*%
%TO.N,IRQ*%
X108659500Y-98790000D03*
%TO.P,ESP32NodeMCU1,28,G17*%
%TO.N,unconnected-(ESP32NodeMCU1-Pad28)*%
X108659500Y-96250000D03*
%TO.P,ESP32NodeMCU1,29,G5*%
%TO.N,~{CSN}*%
X108659500Y-93710000D03*
%TO.P,ESP32NodeMCU1,30,G18*%
%TO.N,SCK*%
X108659500Y-91170000D03*
%TO.P,ESP32NodeMCU1,31,G19*%
%TO.N,MISO*%
X108659500Y-88630000D03*
%TO.P,ESP32NodeMCU1,32,GND*%
%TO.N,GND*%
X108659500Y-86090000D03*
%TO.P,ESP32NodeMCU1,33,G21*%
%TO.N,SDA*%
X108659500Y-83550000D03*
%TO.P,ESP32NodeMCU1,34,RXD*%
%TO.N,unconnected-(ESP32NodeMCU1-Pad34)*%
X108659500Y-81010000D03*
%TO.P,ESP32NodeMCU1,35,TXD*%
%TO.N,unconnected-(ESP32NodeMCU1-Pad35)*%
X108659500Y-78470000D03*
%TO.P,ESP32NodeMCU1,36,G22*%
%TO.N,SCL*%
X108659500Y-75930000D03*
%TO.P,ESP32NodeMCU1,37,G23*%
%TO.N,MOSI*%
X108659500Y-73390000D03*
D12*
%TO.P,ESP32NodeMCU1,38,GND*%
%TO.N,GND*%
X108659500Y-70850000D03*
%TD*%
D17*
%TO.N,PWR3x3*%
X113598000Y-106874000D02*
X114496000Y-105976000D01*
X93472000Y-117856000D02*
X112776000Y-117856000D01*
X93472000Y-74168000D02*
X93472000Y-117856000D01*
X83259500Y-70850000D02*
X90154000Y-70850000D01*
X113598000Y-117542000D02*
X113598000Y-112776000D01*
X114496000Y-105976000D02*
X116346000Y-105976000D01*
X142494000Y-116078000D02*
X142494000Y-77721000D01*
X112776000Y-117856000D02*
X113284000Y-117856000D01*
X140716000Y-117856000D02*
X142494000Y-116078000D01*
X113598000Y-112776000D02*
X113598000Y-106874000D01*
X112776000Y-117856000D02*
X140716000Y-117856000D01*
X113284000Y-117856000D02*
X113598000Y-117542000D01*
X90154000Y-70850000D02*
X93472000Y-74168000D01*
%TO.N,SCL*%
X143243000Y-75930000D02*
X108659500Y-75930000D01*
X145034000Y-77721000D02*
X143243000Y-75930000D01*
%TO.N,SDA*%
X107484500Y-82375000D02*
X108659500Y-83550000D01*
X147574000Y-77721000D02*
X144608000Y-74755000D01*
X144608000Y-74755000D02*
X108172800Y-74755000D01*
X107719900Y-75207900D02*
X107484500Y-75443299D01*
X108172800Y-74755000D02*
X107719900Y-75207900D01*
X107484500Y-75443299D02*
X107484500Y-82375000D01*
X108172799Y-74755000D02*
X107719900Y-75207900D01*
%TO.N,IRQ*%
X108659500Y-98790000D02*
X122666000Y-98790000D01*
X123966000Y-100090000D02*
X123966000Y-105976000D01*
X122666000Y-98790000D02*
X123966000Y-100090000D01*
%TO.N,MISO*%
X125141000Y-107341000D02*
X123966000Y-108516000D01*
X108659500Y-88630000D02*
X121650000Y-88630000D01*
X125141000Y-92121000D02*
X125141000Y-107341000D01*
X121650000Y-88630000D02*
X125141000Y-92121000D01*
%TD*%
%TA.AperFunction,Conductor*%
%TO.N,GND*%
G36*
X175201621Y-69108502D02*
G01*
X175248114Y-69162158D01*
X175259500Y-69214500D01*
X175259500Y-118237500D01*
X175239498Y-118305621D01*
X175185842Y-118352114D01*
X175133500Y-118363500D01*
X164310500Y-118363500D01*
X164242379Y-118343498D01*
X164195886Y-118289842D01*
X164184500Y-118237500D01*
X164184500Y-114346485D01*
X168024854Y-114346485D01*
X168025156Y-114350320D01*
X168048318Y-114644616D01*
X168050370Y-114670695D01*
X168115206Y-114989378D01*
X168218398Y-115297784D01*
X168220052Y-115301253D01*
X168220053Y-115301254D01*
X168225826Y-115313357D01*
X168358405Y-115591316D01*
X168533141Y-115865597D01*
X168535584Y-115868560D01*
X168535585Y-115868562D01*
X168721925Y-116094610D01*
X168740001Y-116116538D01*
X168975902Y-116340399D01*
X169237326Y-116533843D01*
X169310794Y-116575409D01*
X169517019Y-116692086D01*
X169517023Y-116692088D01*
X169520376Y-116693985D01*
X169820832Y-116818438D01*
X169924288Y-116847129D01*
X170130500Y-116904317D01*
X170130508Y-116904319D01*
X170134216Y-116905347D01*
X170455856Y-116953416D01*
X170459154Y-116953560D01*
X170570918Y-116958440D01*
X170570922Y-116958440D01*
X170572294Y-116958500D01*
X170770598Y-116958500D01*
X171012605Y-116943698D01*
X171016388Y-116942997D01*
X171016395Y-116942996D01*
X171216459Y-116905916D01*
X171332372Y-116884433D01*
X171541682Y-116818438D01*
X171638860Y-116787798D01*
X171638863Y-116787797D01*
X171642532Y-116786640D01*
X171646029Y-116785046D01*
X171646035Y-116785044D01*
X171934954Y-116653376D01*
X171934958Y-116653374D01*
X171938462Y-116651777D01*
X171941744Y-116649766D01*
X172212473Y-116483863D01*
X172212476Y-116483861D01*
X172215751Y-116481854D01*
X172218755Y-116479464D01*
X172218760Y-116479461D01*
X172378343Y-116352522D01*
X172470264Y-116279405D01*
X172472958Y-116276664D01*
X172472962Y-116276660D01*
X172695513Y-116050190D01*
X172695517Y-116050185D01*
X172698208Y-116047447D01*
X172896185Y-115789439D01*
X173061242Y-115509227D01*
X173190920Y-115210988D01*
X173193910Y-115200896D01*
X173257681Y-114985607D01*
X173283285Y-114899169D01*
X173336961Y-114578417D01*
X173351146Y-114253515D01*
X173333291Y-114026646D01*
X173325932Y-113933140D01*
X173325932Y-113933137D01*
X173325630Y-113929305D01*
X173260794Y-113610622D01*
X173157602Y-113302216D01*
X173017595Y-113008684D01*
X173014667Y-113004087D01*
X172929261Y-112870027D01*
X172842859Y-112734403D01*
X172840415Y-112731438D01*
X172638442Y-112486425D01*
X172638438Y-112486420D01*
X172635999Y-112483462D01*
X172400098Y-112259601D01*
X172138674Y-112066157D01*
X171933781Y-111950234D01*
X171858981Y-111907914D01*
X171858977Y-111907912D01*
X171855624Y-111906015D01*
X171555168Y-111781562D01*
X171451712Y-111752871D01*
X171245500Y-111695683D01*
X171245492Y-111695681D01*
X171241784Y-111694653D01*
X170920144Y-111646584D01*
X170916846Y-111646440D01*
X170805082Y-111641560D01*
X170805078Y-111641560D01*
X170803706Y-111641500D01*
X170605402Y-111641500D01*
X170363395Y-111656302D01*
X170359612Y-111657003D01*
X170359605Y-111657004D01*
X170237069Y-111679715D01*
X170043628Y-111715567D01*
X169861667Y-111772939D01*
X169737140Y-111812202D01*
X169737137Y-111812203D01*
X169733468Y-111813360D01*
X169729971Y-111814954D01*
X169729965Y-111814956D01*
X169441046Y-111946624D01*
X169441042Y-111946626D01*
X169437538Y-111948223D01*
X169434259Y-111950233D01*
X169434256Y-111950234D01*
X169190140Y-112099829D01*
X169160249Y-112118146D01*
X169157245Y-112120536D01*
X169157240Y-112120539D01*
X169073137Y-112187438D01*
X168905736Y-112320595D01*
X168903042Y-112323336D01*
X168903038Y-112323340D01*
X168680487Y-112549810D01*
X168680483Y-112549815D01*
X168677792Y-112552553D01*
X168575766Y-112685516D01*
X168502134Y-112781475D01*
X168479815Y-112810561D01*
X168369048Y-112998607D01*
X168342576Y-113043548D01*
X168314758Y-113090773D01*
X168185080Y-113389012D01*
X168183986Y-113392706D01*
X168183984Y-113392711D01*
X168170863Y-113437007D01*
X168092715Y-113700831D01*
X168039039Y-114021583D01*
X168024854Y-114346485D01*
X164184500Y-114346485D01*
X164184500Y-108906120D01*
X164204502Y-108837999D01*
X164249318Y-108795971D01*
X164338375Y-108746504D01*
X164338376Y-108746503D01*
X164342368Y-108744286D01*
X164556773Y-108580657D01*
X164620254Y-108515720D01*
X164742117Y-108391060D01*
X164745312Y-108387792D01*
X164904034Y-108169730D01*
X164987190Y-108011676D01*
X165027490Y-107935079D01*
X165027493Y-107935073D01*
X165029615Y-107931039D01*
X165050521Y-107871840D01*
X165117902Y-107681033D01*
X165117902Y-107681032D01*
X165119425Y-107676720D01*
X165149658Y-107523327D01*
X165170700Y-107416572D01*
X165170701Y-107416566D01*
X165171581Y-107412100D01*
X165172145Y-107400776D01*
X165184764Y-107147292D01*
X165184764Y-107147286D01*
X165184991Y-107142723D01*
X165159375Y-106874231D01*
X165156661Y-106863137D01*
X165096355Y-106616688D01*
X165095269Y-106612250D01*
X164994015Y-106362267D01*
X164872404Y-106154570D01*
X164860045Y-106133463D01*
X164860044Y-106133462D01*
X164857735Y-106129518D01*
X164739928Y-105982208D01*
X164692136Y-105922447D01*
X164692135Y-105922445D01*
X164689284Y-105918881D01*
X164492191Y-105734766D01*
X164270584Y-105581032D01*
X164254379Y-105572970D01*
X164202298Y-105524721D01*
X164184500Y-105460159D01*
X164184500Y-79442120D01*
X164204502Y-79373999D01*
X164249318Y-79331971D01*
X164338375Y-79282504D01*
X164338376Y-79282503D01*
X164342368Y-79280286D01*
X164556773Y-79116657D01*
X164569003Y-79104147D01*
X164729965Y-78939491D01*
X164745312Y-78923792D01*
X164904034Y-78705730D01*
X164987190Y-78547676D01*
X165027490Y-78471079D01*
X165027493Y-78471073D01*
X165029615Y-78467039D01*
X165042144Y-78431562D01*
X165117902Y-78217033D01*
X165117902Y-78217032D01*
X165119425Y-78212720D01*
X165155090Y-78031769D01*
X165170700Y-77952572D01*
X165170701Y-77952566D01*
X165171581Y-77948100D01*
X165177431Y-77830590D01*
X165184764Y-77683292D01*
X165184764Y-77683286D01*
X165184991Y-77678723D01*
X165159375Y-77410231D01*
X165141652Y-77337800D01*
X165096355Y-77152688D01*
X165095269Y-77148250D01*
X164994015Y-76898267D01*
X164857735Y-76665518D01*
X164706103Y-76475912D01*
X164692136Y-76458447D01*
X164692135Y-76458445D01*
X164689284Y-76454881D01*
X164492191Y-76270766D01*
X164270584Y-76117032D01*
X164254379Y-76108970D01*
X164202298Y-76060721D01*
X164184500Y-75996159D01*
X164184500Y-73198485D01*
X168024854Y-73198485D01*
X168025156Y-73202320D01*
X168045429Y-73459908D01*
X168050370Y-73522695D01*
X168115206Y-73841378D01*
X168218398Y-74149784D01*
X168220052Y-74153253D01*
X168220053Y-74153254D01*
X168260672Y-74238414D01*
X168358405Y-74443316D01*
X168533141Y-74717597D01*
X168535584Y-74720560D01*
X168535585Y-74720562D01*
X168730551Y-74957074D01*
X168740001Y-74968538D01*
X168975902Y-75192399D01*
X169237326Y-75385843D01*
X169358871Y-75454610D01*
X169517019Y-75544086D01*
X169517023Y-75544088D01*
X169520376Y-75545985D01*
X169820832Y-75670438D01*
X169919316Y-75697750D01*
X170130500Y-75756317D01*
X170130508Y-75756319D01*
X170134216Y-75757347D01*
X170455856Y-75805416D01*
X170459154Y-75805560D01*
X170570918Y-75810440D01*
X170570922Y-75810440D01*
X170572294Y-75810500D01*
X170770598Y-75810500D01*
X171012605Y-75795698D01*
X171016388Y-75794997D01*
X171016395Y-75794996D01*
X171216459Y-75757916D01*
X171332372Y-75736433D01*
X171541682Y-75670438D01*
X171638860Y-75639798D01*
X171638863Y-75639797D01*
X171642532Y-75638640D01*
X171646029Y-75637046D01*
X171646035Y-75637044D01*
X171934954Y-75505376D01*
X171934958Y-75505374D01*
X171938462Y-75503777D01*
X171951610Y-75495720D01*
X172212473Y-75335863D01*
X172212476Y-75335861D01*
X172215751Y-75333854D01*
X172218755Y-75331464D01*
X172218760Y-75331461D01*
X172364022Y-75215914D01*
X172470264Y-75131405D01*
X172472958Y-75128664D01*
X172472962Y-75128660D01*
X172695513Y-74902190D01*
X172695517Y-74902185D01*
X172698208Y-74899447D01*
X172861503Y-74686638D01*
X172893835Y-74644502D01*
X172893837Y-74644498D01*
X172896185Y-74641439D01*
X173022720Y-74426625D01*
X173059289Y-74364543D01*
X173059291Y-74364540D01*
X173061242Y-74361227D01*
X173190920Y-74062988D01*
X173195407Y-74047842D01*
X173250934Y-73860383D01*
X173283285Y-73751169D01*
X173336961Y-73430417D01*
X173351146Y-73105515D01*
X173336121Y-72914610D01*
X173325932Y-72785140D01*
X173325932Y-72785137D01*
X173325630Y-72781305D01*
X173260794Y-72462622D01*
X173157602Y-72154216D01*
X173155885Y-72150615D01*
X173019249Y-71864152D01*
X173017595Y-71860684D01*
X173006624Y-71843462D01*
X172943685Y-71744669D01*
X172842859Y-71586403D01*
X172805744Y-71541379D01*
X172638442Y-71338425D01*
X172638438Y-71338420D01*
X172635999Y-71335462D01*
X172400098Y-71111601D01*
X172395874Y-71108475D01*
X172382674Y-71098708D01*
X172138674Y-70918157D01*
X171933781Y-70802234D01*
X171858981Y-70759914D01*
X171858977Y-70759912D01*
X171855624Y-70758015D01*
X171555168Y-70633562D01*
X171419724Y-70596000D01*
X171245500Y-70547683D01*
X171245492Y-70547681D01*
X171241784Y-70546653D01*
X170920144Y-70498584D01*
X170916846Y-70498440D01*
X170805082Y-70493560D01*
X170805078Y-70493560D01*
X170803706Y-70493500D01*
X170605402Y-70493500D01*
X170363395Y-70508302D01*
X170359612Y-70509003D01*
X170359605Y-70509004D01*
X170203511Y-70537935D01*
X170043628Y-70567567D01*
X169859058Y-70625762D01*
X169737140Y-70664202D01*
X169737137Y-70664203D01*
X169733468Y-70665360D01*
X169729971Y-70666954D01*
X169729965Y-70666956D01*
X169441046Y-70798624D01*
X169441042Y-70798626D01*
X169437538Y-70800223D01*
X169160249Y-70970146D01*
X169157245Y-70972536D01*
X169157240Y-70972539D01*
X169054009Y-71054653D01*
X168905736Y-71172595D01*
X168903042Y-71175336D01*
X168903038Y-71175340D01*
X168680487Y-71401810D01*
X168680483Y-71401815D01*
X168677792Y-71404553D01*
X168479815Y-71662561D01*
X168371511Y-71846425D01*
X168317395Y-71938297D01*
X168314758Y-71942773D01*
X168185080Y-72241012D01*
X168183986Y-72244706D01*
X168183984Y-72244711D01*
X168166616Y-72303345D01*
X168092715Y-72552831D01*
X168039039Y-72873583D01*
X168024854Y-73198485D01*
X164184500Y-73198485D01*
X164184500Y-71373214D01*
X157887500Y-71373214D01*
X157887500Y-76236653D01*
X157867498Y-76304774D01*
X157813842Y-76351267D01*
X157759961Y-76362644D01*
X157712694Y-76362066D01*
X157644080Y-76361228D01*
X157644078Y-76361228D01*
X157638911Y-76361165D01*
X157418091Y-76394955D01*
X157205756Y-76464357D01*
X157007607Y-76567507D01*
X157003474Y-76570610D01*
X157003471Y-76570612D01*
X156833100Y-76698530D01*
X156828965Y-76701635D01*
X156674629Y-76863138D01*
X156567201Y-77020621D01*
X156512293Y-77065621D01*
X156441768Y-77073792D01*
X156378021Y-77042538D01*
X156357324Y-77018054D01*
X156276822Y-76893617D01*
X156276820Y-76893614D01*
X156274014Y-76889277D01*
X156123670Y-76724051D01*
X156119619Y-76720852D01*
X156119615Y-76720848D01*
X155952414Y-76588800D01*
X155952410Y-76588798D01*
X155948359Y-76585598D01*
X155752789Y-76477638D01*
X155747920Y-76475914D01*
X155747916Y-76475912D01*
X155547087Y-76404795D01*
X155547083Y-76404794D01*
X155542212Y-76403069D01*
X155537119Y-76402162D01*
X155537116Y-76402161D01*
X155327373Y-76364800D01*
X155327367Y-76364799D01*
X155322284Y-76363894D01*
X155248452Y-76362992D01*
X155104081Y-76361228D01*
X155104079Y-76361228D01*
X155098911Y-76361165D01*
X154878091Y-76394955D01*
X154665756Y-76464357D01*
X154467607Y-76567507D01*
X154463474Y-76570610D01*
X154463471Y-76570612D01*
X154293100Y-76698530D01*
X154288965Y-76701635D01*
X154134629Y-76863138D01*
X154027201Y-77020621D01*
X153972293Y-77065621D01*
X153901768Y-77073792D01*
X153838021Y-77042538D01*
X153817324Y-77018054D01*
X153736822Y-76893617D01*
X153736820Y-76893614D01*
X153734014Y-76889277D01*
X153583670Y-76724051D01*
X153579619Y-76720852D01*
X153579615Y-76720848D01*
X153412414Y-76588800D01*
X153412410Y-76588798D01*
X153408359Y-76585598D01*
X153212789Y-76477638D01*
X153207920Y-76475914D01*
X153207916Y-76475912D01*
X153007087Y-76404795D01*
X153007083Y-76404794D01*
X153002212Y-76403069D01*
X152997119Y-76402162D01*
X152997116Y-76402161D01*
X152787373Y-76364800D01*
X152787367Y-76364799D01*
X152782284Y-76363894D01*
X152708452Y-76362992D01*
X152564081Y-76361228D01*
X152564079Y-76361228D01*
X152558911Y-76361165D01*
X152338091Y-76394955D01*
X152125756Y-76464357D01*
X151927607Y-76567507D01*
X151923474Y-76570610D01*
X151923471Y-76570612D01*
X151753100Y-76698530D01*
X151748965Y-76701635D01*
X151594629Y-76863138D01*
X151487201Y-77020621D01*
X151432293Y-77065621D01*
X151361768Y-77073792D01*
X151298021Y-77042538D01*
X151277324Y-77018054D01*
X151196822Y-76893617D01*
X151196820Y-76893614D01*
X151194014Y-76889277D01*
X151043670Y-76724051D01*
X151039619Y-76720852D01*
X151039615Y-76720848D01*
X150872414Y-76588800D01*
X150872410Y-76588798D01*
X150868359Y-76585598D01*
X150672789Y-76477638D01*
X150667920Y-76475914D01*
X150667916Y-76475912D01*
X150467087Y-76404795D01*
X150467083Y-76404794D01*
X150462212Y-76403069D01*
X150457119Y-76402162D01*
X150457116Y-76402161D01*
X150247373Y-76364800D01*
X150247367Y-76364799D01*
X150242284Y-76363894D01*
X150168452Y-76362992D01*
X150024081Y-76361228D01*
X150024079Y-76361228D01*
X150018911Y-76361165D01*
X149798091Y-76394955D01*
X149585756Y-76464357D01*
X149387607Y-76567507D01*
X149383474Y-76570610D01*
X149383471Y-76570612D01*
X149213100Y-76698530D01*
X149208965Y-76701635D01*
X149054629Y-76863138D01*
X148947201Y-77020621D01*
X148892293Y-77065621D01*
X148821768Y-77073792D01*
X148758021Y-77042538D01*
X148737324Y-77018054D01*
X148656822Y-76893617D01*
X148656820Y-76893614D01*
X148654014Y-76889277D01*
X148503670Y-76724051D01*
X148499619Y-76720852D01*
X148499615Y-76720848D01*
X148332414Y-76588800D01*
X148332410Y-76588798D01*
X148328359Y-76585598D01*
X148132789Y-76477638D01*
X148127920Y-76475914D01*
X148127916Y-76475912D01*
X147927087Y-76404795D01*
X147927083Y-76404794D01*
X147922212Y-76403069D01*
X147917119Y-76402162D01*
X147917116Y-76402161D01*
X147707373Y-76364800D01*
X147707367Y-76364799D01*
X147702284Y-76363894D01*
X147628452Y-76362992D01*
X147484081Y-76361228D01*
X147484079Y-76361228D01*
X147478911Y-76361165D01*
X147258091Y-76394955D01*
X147245532Y-76399060D01*
X147174568Y-76401210D01*
X147117294Y-76368389D01*
X145111652Y-74362747D01*
X145104112Y-74354461D01*
X145100000Y-74347982D01*
X145050348Y-74301356D01*
X145047507Y-74298602D01*
X145027770Y-74278865D01*
X145024573Y-74276385D01*
X145015551Y-74268680D01*
X144983321Y-74238414D01*
X144976375Y-74234595D01*
X144976372Y-74234593D01*
X144965566Y-74228652D01*
X144949047Y-74217801D01*
X144948583Y-74217441D01*
X144933041Y-74205386D01*
X144925772Y-74202241D01*
X144925768Y-74202238D01*
X144892463Y-74187826D01*
X144881813Y-74182609D01*
X144843060Y-74161305D01*
X144823437Y-74156267D01*
X144804734Y-74149863D01*
X144793420Y-74144967D01*
X144793419Y-74144967D01*
X144786145Y-74141819D01*
X144778322Y-74140580D01*
X144778312Y-74140577D01*
X144742476Y-74134901D01*
X144730856Y-74132495D01*
X144695711Y-74123472D01*
X144695710Y-74123472D01*
X144688030Y-74121500D01*
X144667776Y-74121500D01*
X144648065Y-74119949D01*
X144635886Y-74118020D01*
X144628057Y-74116780D01*
X144620165Y-74117526D01*
X144584039Y-74120941D01*
X144572181Y-74121500D01*
X110016232Y-74121500D01*
X109948111Y-74101498D01*
X109901618Y-74047842D01*
X109891514Y-73977568D01*
X109903275Y-73939673D01*
X109915762Y-73914407D01*
X109926930Y-73891811D01*
X109961922Y-73776638D01*
X109990365Y-73683023D01*
X109990365Y-73683021D01*
X109991870Y-73678069D01*
X110021029Y-73456590D01*
X110021576Y-73434217D01*
X110022574Y-73393365D01*
X110022574Y-73393361D01*
X110022656Y-73390000D01*
X110004352Y-73167361D01*
X109949931Y-72950702D01*
X109860854Y-72745840D01*
X109739514Y-72558277D01*
X109736040Y-72554459D01*
X109736033Y-72554450D01*
X109591935Y-72396088D01*
X109560883Y-72332242D01*
X109569279Y-72261744D01*
X109614456Y-72206976D01*
X109640900Y-72193307D01*
X109747552Y-72153325D01*
X109763149Y-72144786D01*
X109865224Y-72068285D01*
X109877785Y-72055724D01*
X109954286Y-71953649D01*
X109962824Y-71938054D01*
X110007978Y-71817606D01*
X110011605Y-71802351D01*
X110017131Y-71751486D01*
X110017500Y-71744672D01*
X110017500Y-71122115D01*
X110013025Y-71106876D01*
X110011635Y-71105671D01*
X110003952Y-71104000D01*
X107319616Y-71104000D01*
X107304377Y-71108475D01*
X107303172Y-71109865D01*
X107301501Y-71117548D01*
X107301501Y-71744669D01*
X107301871Y-71751490D01*
X107307395Y-71802352D01*
X107311021Y-71817604D01*
X107356176Y-71938054D01*
X107364714Y-71953649D01*
X107441215Y-72055724D01*
X107453776Y-72068285D01*
X107555851Y-72144786D01*
X107571446Y-72153324D01*
X107680327Y-72194142D01*
X107737091Y-72236784D01*
X107761791Y-72303345D01*
X107746583Y-72372694D01*
X107727191Y-72399175D01*
X107670047Y-72458973D01*
X107600129Y-72532138D01*
X107474243Y-72716680D01*
X107380188Y-72919305D01*
X107320489Y-73134570D01*
X107296751Y-73356695D01*
X107297048Y-73361848D01*
X107297048Y-73361851D01*
X107302511Y-73456590D01*
X107309610Y-73579715D01*
X107310747Y-73584761D01*
X107310748Y-73584767D01*
X107316363Y-73609680D01*
X107358722Y-73797639D01*
X107442766Y-74004616D01*
X107463918Y-74039133D01*
X107535698Y-74156267D01*
X107559487Y-74195088D01*
X107562865Y-74198988D01*
X107562866Y-74198989D01*
X107611413Y-74255033D01*
X107640895Y-74319618D01*
X107630780Y-74389891D01*
X107605270Y-74426625D01*
X107246265Y-74785630D01*
X107092239Y-74939655D01*
X107083962Y-74947186D01*
X107077482Y-74951299D01*
X107072059Y-74957074D01*
X107030855Y-75000952D01*
X107028100Y-75003794D01*
X107008366Y-75023528D01*
X107005886Y-75026725D01*
X106998183Y-75035745D01*
X106967914Y-75067978D01*
X106964097Y-75074922D01*
X106964095Y-75074924D01*
X106958156Y-75085727D01*
X106947300Y-75102253D01*
X106939747Y-75111990D01*
X106939743Y-75111996D01*
X106934887Y-75118257D01*
X106931740Y-75125530D01*
X106931739Y-75125531D01*
X106917325Y-75158839D01*
X106912110Y-75169485D01*
X106890805Y-75208239D01*
X106888835Y-75215912D01*
X106888834Y-75215914D01*
X106885767Y-75227859D01*
X106879364Y-75246560D01*
X106874467Y-75257876D01*
X106874465Y-75257882D01*
X106871319Y-75265153D01*
X106867290Y-75290590D01*
X106864401Y-75308830D01*
X106861996Y-75320443D01*
X106851000Y-75363269D01*
X106851000Y-75383522D01*
X106849449Y-75403232D01*
X106846280Y-75423241D01*
X106847026Y-75431133D01*
X106850441Y-75467259D01*
X106851000Y-75479117D01*
X106851000Y-82296233D01*
X106850473Y-82307416D01*
X106848798Y-82314909D01*
X106849047Y-82322835D01*
X106849047Y-82322836D01*
X106850938Y-82382986D01*
X106851000Y-82386945D01*
X106851000Y-82414856D01*
X106851497Y-82418790D01*
X106851497Y-82418791D01*
X106851505Y-82418856D01*
X106852438Y-82430693D01*
X106853827Y-82474889D01*
X106859478Y-82494339D01*
X106863487Y-82513700D01*
X106866026Y-82533797D01*
X106868945Y-82541168D01*
X106868945Y-82541170D01*
X106882304Y-82574912D01*
X106886149Y-82586142D01*
X106898482Y-82628593D01*
X106902515Y-82635412D01*
X106902517Y-82635417D01*
X106908793Y-82646028D01*
X106917488Y-82663776D01*
X106924948Y-82682617D01*
X106929610Y-82689033D01*
X106929610Y-82689034D01*
X106950936Y-82718387D01*
X106957452Y-82728307D01*
X106979958Y-82766362D01*
X106994279Y-82780683D01*
X107007119Y-82795716D01*
X107019028Y-82812107D01*
X107025134Y-82817158D01*
X107053105Y-82840298D01*
X107061884Y-82848288D01*
X107309278Y-83095682D01*
X107343304Y-83157994D01*
X107341600Y-83218448D01*
X107320489Y-83294570D01*
X107319941Y-83299700D01*
X107319940Y-83299704D01*
X107316433Y-83332522D01*
X107296751Y-83516695D01*
X107297048Y-83521848D01*
X107297048Y-83521851D01*
X107302511Y-83616590D01*
X107309610Y-83739715D01*
X107310747Y-83744761D01*
X107310748Y-83744767D01*
X107330619Y-83832939D01*
X107358722Y-83957639D01*
X107442766Y-84164616D01*
X107559487Y-84355088D01*
X107705750Y-84523938D01*
X107877626Y-84666632D01*
X107950945Y-84709476D01*
X107951455Y-84709774D01*
X108000179Y-84761412D01*
X108013250Y-84831195D01*
X107986519Y-84896967D01*
X107946062Y-84930327D01*
X107937957Y-84934546D01*
X107929238Y-84940036D01*
X107758933Y-85067905D01*
X107751226Y-85074748D01*
X107604090Y-85228717D01*
X107597604Y-85236727D01*
X107477598Y-85412649D01*
X107472500Y-85421623D01*
X107382838Y-85614783D01*
X107379275Y-85624470D01*
X107323889Y-85824183D01*
X107325412Y-85832607D01*
X107337792Y-85836000D01*
X109977844Y-85836000D01*
X109991375Y-85832027D01*
X109992680Y-85822947D01*
X109950714Y-85655875D01*
X109947394Y-85646124D01*
X109862472Y-85450814D01*
X109857605Y-85441739D01*
X109741926Y-85262926D01*
X109735636Y-85254757D01*
X109592306Y-85097240D01*
X109584773Y-85090215D01*
X109417639Y-84958222D01*
X109409056Y-84952520D01*
X109372102Y-84932120D01*
X109322131Y-84881687D01*
X109307359Y-84812245D01*
X109332475Y-84745839D01*
X109359827Y-84719232D01*
X109383297Y-84702491D01*
X109539360Y-84591173D01*
X109697596Y-84433489D01*
X109757094Y-84350689D01*
X109824935Y-84256277D01*
X109827953Y-84252077D01*
X109926930Y-84051811D01*
X109991870Y-83838069D01*
X110021029Y-83616590D01*
X110022656Y-83550000D01*
X110004352Y-83327361D01*
X109949931Y-83110702D01*
X109860854Y-82905840D01*
X109739514Y-82718277D01*
X109589170Y-82553051D01*
X109585119Y-82549852D01*
X109585115Y-82549848D01*
X109417914Y-82417800D01*
X109417910Y-82417798D01*
X109413859Y-82414598D01*
X109372553Y-82391796D01*
X109322584Y-82341364D01*
X109307812Y-82271921D01*
X109332928Y-82205516D01*
X109360280Y-82178909D01*
X109404103Y-82147650D01*
X109539360Y-82051173D01*
X109697596Y-81893489D01*
X109757094Y-81810689D01*
X109824935Y-81716277D01*
X109827953Y-81712077D01*
X109926930Y-81511811D01*
X109991870Y-81298069D01*
X110021029Y-81076590D01*
X110022656Y-81010000D01*
X110004352Y-80787361D01*
X109949931Y-80570702D01*
X109860854Y-80365840D01*
X109739514Y-80178277D01*
X109589170Y-80013051D01*
X109585119Y-80009852D01*
X109585115Y-80009848D01*
X109417914Y-79877800D01*
X109417910Y-79877798D01*
X109413859Y-79874598D01*
X109372553Y-79851796D01*
X109322584Y-79801364D01*
X109307812Y-79731921D01*
X109332928Y-79665516D01*
X109360280Y-79638909D01*
X109404103Y-79607650D01*
X109539360Y-79511173D01*
X109543743Y-79506806D01*
X109639633Y-79411250D01*
X109697596Y-79353489D01*
X109716630Y-79327001D01*
X109824935Y-79176277D01*
X109827953Y-79172077D01*
X109834184Y-79159471D01*
X109924636Y-78976453D01*
X109924637Y-78976451D01*
X109926930Y-78971811D01*
X109991870Y-78758069D01*
X110021029Y-78536590D01*
X110022656Y-78470000D01*
X110004352Y-78247361D01*
X109949931Y-78030702D01*
X109860854Y-77825840D01*
X109765680Y-77678723D01*
X109742322Y-77642617D01*
X109742320Y-77642614D01*
X109739514Y-77638277D01*
X109589170Y-77473051D01*
X109585119Y-77469852D01*
X109585115Y-77469848D01*
X109417914Y-77337800D01*
X109417910Y-77337798D01*
X109413859Y-77334598D01*
X109372553Y-77311796D01*
X109322584Y-77261364D01*
X109307812Y-77191921D01*
X109332928Y-77125516D01*
X109360280Y-77098909D01*
X109406948Y-77065621D01*
X109539360Y-76971173D01*
X109617188Y-76893617D01*
X109693935Y-76817137D01*
X109697596Y-76813489D01*
X109757094Y-76730689D01*
X109824935Y-76636277D01*
X109827953Y-76632077D01*
X109830246Y-76627437D01*
X109831946Y-76624608D01*
X109884174Y-76576518D01*
X109939951Y-76563500D01*
X132666198Y-76563500D01*
X132734319Y-76583502D01*
X132780812Y-76637158D01*
X132790916Y-76707432D01*
X132777706Y-76748167D01*
X132660515Y-76970910D01*
X132660509Y-76970925D01*
X132658385Y-76974961D01*
X132656865Y-76979266D01*
X132656863Y-76979270D01*
X132578280Y-77201797D01*
X132568575Y-77229280D01*
X132559235Y-77276669D01*
X132517779Y-77487002D01*
X132516419Y-77493900D01*
X132516192Y-77498453D01*
X132516192Y-77498456D01*
X132506772Y-77687695D01*
X132503009Y-77763277D01*
X132528625Y-78031769D01*
X132529710Y-78036203D01*
X132529711Y-78036209D01*
X132581380Y-78247361D01*
X132592731Y-78293750D01*
X132693985Y-78543733D01*
X132830265Y-78776482D01*
X132914990Y-78882425D01*
X132967217Y-78947731D01*
X132998716Y-78987119D01*
X133195809Y-79171234D01*
X133417416Y-79324968D01*
X133421499Y-79326999D01*
X133421502Y-79327001D01*
X133503862Y-79367974D01*
X133658894Y-79445101D01*
X133663228Y-79446522D01*
X133663231Y-79446523D01*
X133910853Y-79527698D01*
X133910859Y-79527699D01*
X133915186Y-79529118D01*
X133919677Y-79529898D01*
X133919678Y-79529898D01*
X134177140Y-79574601D01*
X134177148Y-79574602D01*
X134180921Y-79575257D01*
X134184758Y-79575448D01*
X134264578Y-79579422D01*
X134264586Y-79579422D01*
X134266149Y-79579500D01*
X134434512Y-79579500D01*
X134436780Y-79579335D01*
X134436792Y-79579335D01*
X134567884Y-79569823D01*
X134635004Y-79564953D01*
X134639459Y-79563969D01*
X134639462Y-79563969D01*
X134893912Y-79507791D01*
X134893916Y-79507790D01*
X134898372Y-79506806D01*
X135055594Y-79447240D01*
X135146318Y-79412868D01*
X135146321Y-79412867D01*
X135150588Y-79411250D01*
X135386368Y-79280286D01*
X135600773Y-79116657D01*
X135613003Y-79104147D01*
X135773965Y-78939491D01*
X135789312Y-78923792D01*
X135948034Y-78705730D01*
X135995417Y-78615669D01*
X138596001Y-78615669D01*
X138596371Y-78622490D01*
X138601895Y-78673352D01*
X138605521Y-78688604D01*
X138650676Y-78809054D01*
X138659214Y-78824649D01*
X138735715Y-78926724D01*
X138748276Y-78939285D01*
X138850351Y-79015786D01*
X138865946Y-79024324D01*
X138986394Y-79069478D01*
X139001649Y-79073105D01*
X139052514Y-79078631D01*
X139059328Y-79079000D01*
X139681885Y-79079000D01*
X139697124Y-79074525D01*
X139698329Y-79073135D01*
X139700000Y-79065452D01*
X139700000Y-77993115D01*
X139695525Y-77977876D01*
X139694135Y-77976671D01*
X139686452Y-77975000D01*
X138614116Y-77975000D01*
X138598877Y-77979475D01*
X138597672Y-77980865D01*
X138596001Y-77988548D01*
X138596001Y-78615669D01*
X135995417Y-78615669D01*
X136031190Y-78547676D01*
X136071490Y-78471079D01*
X136071493Y-78471073D01*
X136073615Y-78467039D01*
X136086144Y-78431562D01*
X136161902Y-78217033D01*
X136161902Y-78217032D01*
X136163425Y-78212720D01*
X136199090Y-78031769D01*
X136214700Y-77952572D01*
X136214701Y-77952566D01*
X136215581Y-77948100D01*
X136221431Y-77830590D01*
X136228764Y-77683292D01*
X136228764Y-77683286D01*
X136228991Y-77678723D01*
X136203375Y-77410231D01*
X136185652Y-77337800D01*
X136140355Y-77152688D01*
X136139269Y-77148250D01*
X136038015Y-76898267D01*
X135953053Y-76753163D01*
X135935894Y-76684274D01*
X135958705Y-76617041D01*
X136014243Y-76572814D01*
X136061786Y-76563500D01*
X138494912Y-76563500D01*
X138563033Y-76583502D01*
X138609526Y-76637158D01*
X138619630Y-76707432D01*
X138612893Y-76733732D01*
X138605522Y-76753393D01*
X138601895Y-76768649D01*
X138596369Y-76819514D01*
X138596000Y-76826328D01*
X138596000Y-77448885D01*
X138600475Y-77464124D01*
X138601865Y-77465329D01*
X138609548Y-77467000D01*
X140082000Y-77467000D01*
X140150121Y-77487002D01*
X140196614Y-77540658D01*
X140208000Y-77593000D01*
X140208000Y-79060884D01*
X140212475Y-79076123D01*
X140213865Y-79077328D01*
X140221548Y-79078999D01*
X140848669Y-79078999D01*
X140855490Y-79078629D01*
X140906352Y-79073105D01*
X140921604Y-79069479D01*
X141042054Y-79024324D01*
X141057649Y-79015786D01*
X141159724Y-78939285D01*
X141172285Y-78926724D01*
X141248786Y-78824649D01*
X141257324Y-78809054D01*
X141298225Y-78699952D01*
X141340867Y-78643188D01*
X141407428Y-78618488D01*
X141476777Y-78633696D01*
X141511444Y-78661684D01*
X141536865Y-78691031D01*
X141536869Y-78691035D01*
X141540250Y-78694938D01*
X141712126Y-78837632D01*
X141788781Y-78882425D01*
X141798070Y-78887853D01*
X141846794Y-78939491D01*
X141860500Y-78996641D01*
X141860500Y-115763406D01*
X141840498Y-115831527D01*
X141823595Y-115852501D01*
X140490500Y-117185595D01*
X140428188Y-117219621D01*
X140401405Y-117222500D01*
X114357500Y-117222500D01*
X114289379Y-117202498D01*
X114242886Y-117148842D01*
X114231500Y-117096500D01*
X114231500Y-113995394D01*
X114251502Y-113927273D01*
X114285229Y-113892181D01*
X114437789Y-113785357D01*
X114437792Y-113785355D01*
X114442300Y-113782198D01*
X114604198Y-113620300D01*
X114628248Y-113585954D01*
X114732366Y-113437257D01*
X114735523Y-113432749D01*
X114737846Y-113427767D01*
X114737849Y-113427762D01*
X114829961Y-113230225D01*
X114829961Y-113230224D01*
X114832284Y-113225243D01*
X114868316Y-113090773D01*
X114881245Y-113042522D01*
X119815273Y-113042522D01*
X119862764Y-113219761D01*
X119866510Y-113230053D01*
X119958586Y-113427511D01*
X119964069Y-113437007D01*
X120089028Y-113615467D01*
X120096084Y-113623875D01*
X120250125Y-113777916D01*
X120258533Y-113784972D01*
X120436993Y-113909931D01*
X120446489Y-113915414D01*
X120643947Y-114007490D01*
X120654239Y-114011236D01*
X120826503Y-114057394D01*
X120840599Y-114057058D01*
X120844000Y-114049116D01*
X120844000Y-114043967D01*
X121352000Y-114043967D01*
X121355973Y-114057498D01*
X121364522Y-114058727D01*
X121541761Y-114011236D01*
X121552053Y-114007490D01*
X121749511Y-113915414D01*
X121759007Y-113909931D01*
X121937467Y-113784972D01*
X121945875Y-113777916D01*
X122099916Y-113623875D01*
X122106972Y-113615467D01*
X122231931Y-113437007D01*
X122237414Y-113427511D01*
X122329490Y-113230053D01*
X122333236Y-113219761D01*
X122379394Y-113047497D01*
X122379058Y-113033401D01*
X122371116Y-113030000D01*
X121370115Y-113030000D01*
X121354876Y-113034475D01*
X121353671Y-113035865D01*
X121352000Y-113043548D01*
X121352000Y-114043967D01*
X120844000Y-114043967D01*
X120844000Y-113048115D01*
X120839525Y-113032876D01*
X120838135Y-113031671D01*
X120830452Y-113030000D01*
X119830033Y-113030000D01*
X119816502Y-113033973D01*
X119815273Y-113042522D01*
X114881245Y-113042522D01*
X114890119Y-113009402D01*
X114890119Y-113009400D01*
X114891543Y-113004087D01*
X114911498Y-112776000D01*
X114891543Y-112547913D01*
X114887861Y-112534171D01*
X114879911Y-112504503D01*
X119816606Y-112504503D01*
X119816942Y-112518599D01*
X119824884Y-112522000D01*
X120825885Y-112522000D01*
X120841124Y-112517525D01*
X120842329Y-112516135D01*
X120844000Y-112508452D01*
X120844000Y-112503885D01*
X121352000Y-112503885D01*
X121356475Y-112519124D01*
X121357865Y-112520329D01*
X121365548Y-112522000D01*
X122365967Y-112522000D01*
X122379498Y-112518027D01*
X122380727Y-112509478D01*
X122333236Y-112332239D01*
X122329490Y-112321947D01*
X122237414Y-112124489D01*
X122231931Y-112114993D01*
X122106972Y-111936533D01*
X122099916Y-111928125D01*
X121945875Y-111774084D01*
X121937467Y-111767028D01*
X121759007Y-111642069D01*
X121749511Y-111636586D01*
X121552053Y-111544510D01*
X121541761Y-111540764D01*
X121369497Y-111494606D01*
X121355401Y-111494942D01*
X121352000Y-111502884D01*
X121352000Y-112503885D01*
X120844000Y-112503885D01*
X120844000Y-111508033D01*
X120840027Y-111494502D01*
X120831478Y-111493273D01*
X120654239Y-111540764D01*
X120643947Y-111544510D01*
X120446489Y-111636586D01*
X120436993Y-111642069D01*
X120258533Y-111767028D01*
X120250125Y-111774084D01*
X120096084Y-111928125D01*
X120089028Y-111936533D01*
X119964069Y-112114993D01*
X119958586Y-112124489D01*
X119866510Y-112321947D01*
X119862764Y-112332239D01*
X119816606Y-112504503D01*
X114879911Y-112504503D01*
X114833707Y-112332067D01*
X114833706Y-112332065D01*
X114832284Y-112326757D01*
X114817517Y-112295088D01*
X114737849Y-112124238D01*
X114737846Y-112124233D01*
X114735523Y-112119251D01*
X114646288Y-111991811D01*
X114607357Y-111936211D01*
X114607355Y-111936208D01*
X114604198Y-111931700D01*
X114442300Y-111769802D01*
X114437792Y-111766645D01*
X114437789Y-111766643D01*
X114285229Y-111659819D01*
X114240901Y-111604362D01*
X114231500Y-111556606D01*
X114231500Y-109410669D01*
X114988001Y-109410669D01*
X114988371Y-109417490D01*
X114993895Y-109468352D01*
X114997521Y-109483604D01*
X115042676Y-109604054D01*
X115051214Y-109619649D01*
X115127715Y-109721724D01*
X115140276Y-109734285D01*
X115242351Y-109810786D01*
X115257946Y-109819324D01*
X115378394Y-109864478D01*
X115393649Y-109868105D01*
X115444514Y-109873631D01*
X115451328Y-109874000D01*
X116073885Y-109874000D01*
X116089124Y-109869525D01*
X116090329Y-109868135D01*
X116092000Y-109860452D01*
X116092000Y-108788115D01*
X116087525Y-108772876D01*
X116086135Y-108771671D01*
X116078452Y-108770000D01*
X115006116Y-108770000D01*
X114990877Y-108774475D01*
X114989672Y-108775865D01*
X114988001Y-108783548D01*
X114988001Y-109410669D01*
X114231500Y-109410669D01*
X114231500Y-107188595D01*
X114251502Y-107120474D01*
X114268405Y-107099499D01*
X114721501Y-106646404D01*
X114783813Y-106612379D01*
X114810596Y-106609500D01*
X115070274Y-106609500D01*
X115138395Y-106629502D01*
X115177707Y-106669665D01*
X115245987Y-106781088D01*
X115392250Y-106949938D01*
X115396225Y-106953238D01*
X115396231Y-106953244D01*
X115401425Y-106957556D01*
X115441059Y-107016460D01*
X115442555Y-107087441D01*
X115405439Y-107147962D01*
X115365168Y-107172480D01*
X115257946Y-107212676D01*
X115242351Y-107221214D01*
X115140276Y-107297715D01*
X115127715Y-107310276D01*
X115051214Y-107412351D01*
X115042676Y-107427946D01*
X114997522Y-107548394D01*
X114993895Y-107563649D01*
X114988369Y-107614514D01*
X114988000Y-107621328D01*
X114988000Y-108243885D01*
X114992475Y-108259124D01*
X114993865Y-108260329D01*
X115001548Y-108262000D01*
X116474000Y-108262000D01*
X116542121Y-108282002D01*
X116588614Y-108335658D01*
X116600000Y-108388000D01*
X116600000Y-109855884D01*
X116604475Y-109871123D01*
X116605865Y-109872328D01*
X116613548Y-109873999D01*
X117240669Y-109873999D01*
X117247490Y-109873629D01*
X117298352Y-109868105D01*
X117313604Y-109864479D01*
X117434054Y-109819324D01*
X117449649Y-109810786D01*
X117551724Y-109734285D01*
X117564285Y-109721724D01*
X117640786Y-109619649D01*
X117649324Y-109604054D01*
X117690225Y-109494952D01*
X117732867Y-109438188D01*
X117799428Y-109413488D01*
X117868777Y-109428696D01*
X117903444Y-109456684D01*
X117928865Y-109486031D01*
X117928869Y-109486035D01*
X117932250Y-109489938D01*
X118104126Y-109632632D01*
X118297000Y-109745338D01*
X118301825Y-109747180D01*
X118301826Y-109747181D01*
X118332751Y-109758990D01*
X118505692Y-109825030D01*
X118510760Y-109826061D01*
X118510763Y-109826062D01*
X118565199Y-109837137D01*
X118724597Y-109869567D01*
X118729772Y-109869757D01*
X118729774Y-109869757D01*
X118942673Y-109877564D01*
X118942677Y-109877564D01*
X118947837Y-109877753D01*
X118952957Y-109877097D01*
X118952959Y-109877097D01*
X119164288Y-109850025D01*
X119164289Y-109850025D01*
X119169416Y-109849368D01*
X119210184Y-109837137D01*
X119378429Y-109786661D01*
X119378434Y-109786659D01*
X119383384Y-109785174D01*
X119583994Y-109686896D01*
X119765860Y-109557173D01*
X119924096Y-109399489D01*
X120054453Y-109218077D01*
X120055776Y-109219028D01*
X120102645Y-109175857D01*
X120172580Y-109163625D01*
X120238026Y-109191144D01*
X120265875Y-109222994D01*
X120325987Y-109321088D01*
X120472250Y-109489938D01*
X120644126Y-109632632D01*
X120837000Y-109745338D01*
X120841825Y-109747180D01*
X120841826Y-109747181D01*
X120872751Y-109758990D01*
X121045692Y-109825030D01*
X121050760Y-109826061D01*
X121050763Y-109826062D01*
X121105199Y-109837137D01*
X121264597Y-109869567D01*
X121269772Y-109869757D01*
X121269774Y-109869757D01*
X121482673Y-109877564D01*
X121482677Y-109877564D01*
X121487837Y-109877753D01*
X121492957Y-109877097D01*
X121492959Y-109877097D01*
X121704288Y-109850025D01*
X121704289Y-109850025D01*
X121709416Y-109849368D01*
X121750184Y-109837137D01*
X121918429Y-109786661D01*
X121918434Y-109786659D01*
X121923384Y-109785174D01*
X122123994Y-109686896D01*
X122305860Y-109557173D01*
X122464096Y-109399489D01*
X122594453Y-109218077D01*
X122595776Y-109219028D01*
X122642645Y-109175857D01*
X122712580Y-109163625D01*
X122778026Y-109191144D01*
X122805875Y-109222994D01*
X122865987Y-109321088D01*
X123012250Y-109489938D01*
X123184126Y-109632632D01*
X123377000Y-109745338D01*
X123381825Y-109747180D01*
X123381826Y-109747181D01*
X123412751Y-109758990D01*
X123585692Y-109825030D01*
X123590760Y-109826061D01*
X123590763Y-109826062D01*
X123645199Y-109837137D01*
X123804597Y-109869567D01*
X123809772Y-109869757D01*
X123809774Y-109869757D01*
X124022673Y-109877564D01*
X124022677Y-109877564D01*
X124027837Y-109877753D01*
X124032957Y-109877097D01*
X124032959Y-109877097D01*
X124244288Y-109850025D01*
X124244289Y-109850025D01*
X124249416Y-109849368D01*
X124290184Y-109837137D01*
X124458429Y-109786661D01*
X124458434Y-109786659D01*
X124463384Y-109785174D01*
X124663994Y-109686896D01*
X124845860Y-109557173D01*
X125004096Y-109399489D01*
X125134453Y-109218077D01*
X125155320Y-109175857D01*
X125231136Y-109022453D01*
X125231137Y-109022451D01*
X125233430Y-109017811D01*
X125276252Y-108876868D01*
X125296865Y-108809023D01*
X125296865Y-108809021D01*
X125298370Y-108804069D01*
X125327529Y-108582590D01*
X125329156Y-108516000D01*
X125310852Y-108293361D01*
X125282821Y-108181766D01*
X125285625Y-108110825D01*
X125315930Y-108061975D01*
X125533253Y-107844652D01*
X125541539Y-107837112D01*
X125548018Y-107833000D01*
X125565299Y-107814598D01*
X125594643Y-107783349D01*
X125597398Y-107780507D01*
X125617135Y-107760770D01*
X125619615Y-107757573D01*
X125627320Y-107748551D01*
X125652159Y-107722100D01*
X125657586Y-107716321D01*
X125661405Y-107709375D01*
X125661407Y-107709372D01*
X125667348Y-107698566D01*
X125678199Y-107682047D01*
X125685758Y-107672301D01*
X125690614Y-107666041D01*
X125693759Y-107658772D01*
X125693762Y-107658768D01*
X125708174Y-107625463D01*
X125713391Y-107614813D01*
X125734695Y-107576060D01*
X125739733Y-107556437D01*
X125746137Y-107537734D01*
X125751033Y-107526420D01*
X125751033Y-107526419D01*
X125754181Y-107519145D01*
X125755420Y-107511322D01*
X125755423Y-107511312D01*
X125761099Y-107475476D01*
X125763505Y-107463856D01*
X125772528Y-107428711D01*
X125772528Y-107428710D01*
X125774500Y-107421030D01*
X125774500Y-107400776D01*
X125776051Y-107381065D01*
X125777980Y-107368886D01*
X125779220Y-107361057D01*
X125775059Y-107317038D01*
X125774500Y-107305181D01*
X125774500Y-107227277D01*
X132503009Y-107227277D01*
X132528625Y-107495769D01*
X132529710Y-107500203D01*
X132529711Y-107500209D01*
X132588721Y-107741364D01*
X132592731Y-107757750D01*
X132693985Y-108007733D01*
X132830265Y-108240482D01*
X132876681Y-108298522D01*
X132950686Y-108391060D01*
X132998716Y-108451119D01*
X133195809Y-108635234D01*
X133417416Y-108788968D01*
X133421499Y-108790999D01*
X133421502Y-108791001D01*
X133447770Y-108804069D01*
X133658894Y-108909101D01*
X133663228Y-108910522D01*
X133663231Y-108910523D01*
X133910853Y-108991698D01*
X133910859Y-108991699D01*
X133915186Y-108993118D01*
X133919677Y-108993898D01*
X133919678Y-108993898D01*
X134177140Y-109038601D01*
X134177148Y-109038602D01*
X134180921Y-109039257D01*
X134184758Y-109039448D01*
X134264578Y-109043422D01*
X134264586Y-109043422D01*
X134266149Y-109043500D01*
X134434512Y-109043500D01*
X134436780Y-109043335D01*
X134436792Y-109043335D01*
X134567884Y-109033823D01*
X134635004Y-109028953D01*
X134639459Y-109027969D01*
X134639462Y-109027969D01*
X134893912Y-108971791D01*
X134893916Y-108971790D01*
X134898372Y-108970806D01*
X135054744Y-108911562D01*
X135146318Y-108876868D01*
X135146321Y-108876867D01*
X135150588Y-108875250D01*
X135329515Y-108775865D01*
X135382375Y-108746504D01*
X135382376Y-108746503D01*
X135386368Y-108744286D01*
X135600773Y-108580657D01*
X135664254Y-108515720D01*
X135786117Y-108391060D01*
X135789312Y-108387792D01*
X135948034Y-108169730D01*
X136031190Y-108011676D01*
X136071490Y-107935079D01*
X136071493Y-107935073D01*
X136073615Y-107931039D01*
X136094521Y-107871840D01*
X136161902Y-107681033D01*
X136161902Y-107681032D01*
X136163425Y-107676720D01*
X136193658Y-107523327D01*
X136214700Y-107416572D01*
X136214701Y-107416566D01*
X136215581Y-107412100D01*
X136216145Y-107400776D01*
X136228764Y-107147292D01*
X136228764Y-107147286D01*
X136228991Y-107142723D01*
X136203375Y-106874231D01*
X136200661Y-106863137D01*
X136140355Y-106616688D01*
X136139269Y-106612250D01*
X136038015Y-106362267D01*
X135916404Y-106154570D01*
X135904045Y-106133463D01*
X135904044Y-106133462D01*
X135901735Y-106129518D01*
X135783928Y-105982208D01*
X135736136Y-105922447D01*
X135736135Y-105922445D01*
X135733284Y-105918881D01*
X135536191Y-105734766D01*
X135314584Y-105581032D01*
X135310501Y-105579001D01*
X135310498Y-105578999D01*
X135163500Y-105505869D01*
X135073106Y-105460899D01*
X135068772Y-105459478D01*
X135068769Y-105459477D01*
X134821147Y-105378302D01*
X134821141Y-105378301D01*
X134816814Y-105376882D01*
X134799075Y-105373802D01*
X134554860Y-105331399D01*
X134554852Y-105331398D01*
X134551079Y-105330743D01*
X134539817Y-105330182D01*
X134467422Y-105326578D01*
X134467414Y-105326578D01*
X134465851Y-105326500D01*
X134297488Y-105326500D01*
X134295220Y-105326665D01*
X134295208Y-105326665D01*
X134164116Y-105336177D01*
X134096996Y-105341047D01*
X134092541Y-105342031D01*
X134092538Y-105342031D01*
X133838088Y-105398209D01*
X133838084Y-105398210D01*
X133833628Y-105399194D01*
X133788087Y-105416448D01*
X133585682Y-105493132D01*
X133585679Y-105493133D01*
X133581412Y-105494750D01*
X133345632Y-105625714D01*
X133131227Y-105789343D01*
X132942688Y-105982208D01*
X132783966Y-106200270D01*
X132781844Y-106204304D01*
X132660510Y-106434921D01*
X132660507Y-106434927D01*
X132658385Y-106438961D01*
X132656865Y-106443266D01*
X132656863Y-106443270D01*
X132585129Y-106646404D01*
X132568575Y-106693280D01*
X132545058Y-106812596D01*
X132517337Y-106953244D01*
X132516419Y-106957900D01*
X132516192Y-106962453D01*
X132516192Y-106962456D01*
X132503311Y-107221214D01*
X132503009Y-107227277D01*
X125774500Y-107227277D01*
X125774500Y-92199768D01*
X125775027Y-92188585D01*
X125776702Y-92181092D01*
X125775412Y-92140031D01*
X125774562Y-92113002D01*
X125774500Y-92109044D01*
X125774500Y-92081144D01*
X125773996Y-92077153D01*
X125773063Y-92065311D01*
X125772692Y-92053489D01*
X125771674Y-92021111D01*
X125766021Y-92001652D01*
X125762012Y-91982293D01*
X125761595Y-91978990D01*
X125759474Y-91962203D01*
X125756558Y-91954837D01*
X125756556Y-91954831D01*
X125743200Y-91921098D01*
X125739355Y-91909868D01*
X125729230Y-91875017D01*
X125729230Y-91875016D01*
X125727019Y-91867407D01*
X125716705Y-91849966D01*
X125708008Y-91832213D01*
X125703472Y-91820758D01*
X125700552Y-91813383D01*
X125674563Y-91777612D01*
X125668047Y-91767692D01*
X125649578Y-91736463D01*
X125645542Y-91729638D01*
X125631221Y-91715317D01*
X125618380Y-91700283D01*
X125611131Y-91690306D01*
X125606472Y-91683893D01*
X125572395Y-91655702D01*
X125563616Y-91647712D01*
X122153652Y-88237747D01*
X122146112Y-88229461D01*
X122142000Y-88222982D01*
X122092348Y-88176356D01*
X122089507Y-88173602D01*
X122069770Y-88153865D01*
X122066573Y-88151385D01*
X122057551Y-88143680D01*
X122031100Y-88118841D01*
X122025321Y-88113414D01*
X122018375Y-88109595D01*
X122018372Y-88109593D01*
X122007566Y-88103652D01*
X121991047Y-88092801D01*
X121990583Y-88092441D01*
X121975041Y-88080386D01*
X121967772Y-88077241D01*
X121967768Y-88077238D01*
X121934463Y-88062826D01*
X121923813Y-88057609D01*
X121885060Y-88036305D01*
X121865437Y-88031267D01*
X121846734Y-88024863D01*
X121835420Y-88019967D01*
X121835419Y-88019967D01*
X121828145Y-88016819D01*
X121820322Y-88015580D01*
X121820312Y-88015577D01*
X121784476Y-88009901D01*
X121772856Y-88007495D01*
X121737711Y-87998472D01*
X121737710Y-87998472D01*
X121730030Y-87996500D01*
X121709776Y-87996500D01*
X121690065Y-87994949D01*
X121677886Y-87993020D01*
X121670057Y-87991780D01*
X121662165Y-87992526D01*
X121626039Y-87995941D01*
X121614181Y-87996500D01*
X109936305Y-87996500D01*
X109868184Y-87976498D01*
X109830513Y-87938940D01*
X109742322Y-87802617D01*
X109742320Y-87802614D01*
X109739514Y-87798277D01*
X109589170Y-87633051D01*
X109585119Y-87629852D01*
X109585115Y-87629848D01*
X109417914Y-87497800D01*
X109417910Y-87497798D01*
X109413859Y-87494598D01*
X109372069Y-87471529D01*
X109322098Y-87421097D01*
X109307326Y-87351654D01*
X109332442Y-87285248D01*
X109359794Y-87258641D01*
X109534828Y-87133792D01*
X109542700Y-87127139D01*
X109693552Y-86976812D01*
X109700230Y-86968965D01*
X109824503Y-86796020D01*
X109829813Y-86787183D01*
X109924170Y-86596267D01*
X109927969Y-86586672D01*
X109989877Y-86382910D01*
X109992055Y-86372837D01*
X109993486Y-86361962D01*
X109991275Y-86347778D01*
X109978117Y-86344000D01*
X107342725Y-86344000D01*
X107329194Y-86347973D01*
X107327757Y-86357966D01*
X107358065Y-86492446D01*
X107361145Y-86502275D01*
X107441270Y-86699603D01*
X107445913Y-86708794D01*
X107557194Y-86890388D01*
X107563277Y-86898699D01*
X107702713Y-87059667D01*
X107710080Y-87066883D01*
X107873934Y-87202916D01*
X107882381Y-87208831D01*
X107951469Y-87249203D01*
X108000193Y-87300842D01*
X108013264Y-87370625D01*
X107986533Y-87436396D01*
X107946084Y-87469752D01*
X107933107Y-87476507D01*
X107928974Y-87479610D01*
X107928971Y-87479612D01*
X107904747Y-87497800D01*
X107754465Y-87610635D01*
X107600129Y-87772138D01*
X107474243Y-87956680D01*
X107435511Y-88040121D01*
X107398971Y-88118841D01*
X107380188Y-88159305D01*
X107320489Y-88374570D01*
X107296751Y-88596695D01*
X107297048Y-88601848D01*
X107297048Y-88601851D01*
X107302511Y-88696590D01*
X107309610Y-88819715D01*
X107310747Y-88824761D01*
X107310748Y-88824767D01*
X107330619Y-88912939D01*
X107358722Y-89037639D01*
X107442766Y-89244616D01*
X107559487Y-89435088D01*
X107705750Y-89603938D01*
X107877626Y-89746632D01*
X107948095Y-89787811D01*
X107950945Y-89789476D01*
X107999669Y-89841114D01*
X108012740Y-89910897D01*
X107986009Y-89976669D01*
X107945555Y-90010027D01*
X107933107Y-90016507D01*
X107928974Y-90019610D01*
X107928971Y-90019612D01*
X107904747Y-90037800D01*
X107754465Y-90150635D01*
X107600129Y-90312138D01*
X107474243Y-90496680D01*
X107380188Y-90699305D01*
X107320489Y-90914570D01*
X107296751Y-91136695D01*
X107297048Y-91141848D01*
X107297048Y-91141851D01*
X107302511Y-91236590D01*
X107309610Y-91359715D01*
X107310747Y-91364761D01*
X107310748Y-91364767D01*
X107330619Y-91452939D01*
X107358722Y-91577639D01*
X107442766Y-91784616D01*
X107464914Y-91820758D01*
X107556411Y-91970068D01*
X107559487Y-91975088D01*
X107705750Y-92143938D01*
X107877626Y-92286632D01*
X107948095Y-92327811D01*
X107950945Y-92329476D01*
X107999669Y-92381114D01*
X108012740Y-92450897D01*
X107986009Y-92516669D01*
X107945555Y-92550027D01*
X107933107Y-92556507D01*
X107928974Y-92559610D01*
X107928971Y-92559612D01*
X107904747Y-92577800D01*
X107754465Y-92690635D01*
X107600129Y-92852138D01*
X107474243Y-93036680D01*
X107380188Y-93239305D01*
X107320489Y-93454570D01*
X107296751Y-93676695D01*
X107297048Y-93681848D01*
X107297048Y-93681851D01*
X107302511Y-93776590D01*
X107309610Y-93899715D01*
X107310747Y-93904761D01*
X107310748Y-93904767D01*
X107330619Y-93992939D01*
X107358722Y-94117639D01*
X107442766Y-94324616D01*
X107559487Y-94515088D01*
X107705750Y-94683938D01*
X107877626Y-94826632D01*
X107948095Y-94867811D01*
X107950945Y-94869476D01*
X107999669Y-94921114D01*
X108012740Y-94990897D01*
X107986009Y-95056669D01*
X107945555Y-95090027D01*
X107933107Y-95096507D01*
X107928974Y-95099610D01*
X107928971Y-95099612D01*
X107904747Y-95117800D01*
X107754465Y-95230635D01*
X107600129Y-95392138D01*
X107474243Y-95576680D01*
X107380188Y-95779305D01*
X107320489Y-95994570D01*
X107296751Y-96216695D01*
X107297048Y-96221848D01*
X107297048Y-96221851D01*
X107302511Y-96316590D01*
X107309610Y-96439715D01*
X107310747Y-96444761D01*
X107310748Y-96444767D01*
X107330619Y-96532939D01*
X107358722Y-96657639D01*
X107442766Y-96864616D01*
X107559487Y-97055088D01*
X107705750Y-97223938D01*
X107877626Y-97366632D01*
X107948095Y-97407811D01*
X107950945Y-97409476D01*
X107999669Y-97461114D01*
X108012740Y-97530897D01*
X107986009Y-97596669D01*
X107945555Y-97630027D01*
X107933107Y-97636507D01*
X107928974Y-97639610D01*
X107928971Y-97639612D01*
X107904747Y-97657800D01*
X107754465Y-97770635D01*
X107600129Y-97932138D01*
X107474243Y-98116680D01*
X107435511Y-98200121D01*
X107398971Y-98278841D01*
X107380188Y-98319305D01*
X107320489Y-98534570D01*
X107296751Y-98756695D01*
X107297048Y-98761848D01*
X107297048Y-98761851D01*
X107302511Y-98856590D01*
X107309610Y-98979715D01*
X107310747Y-98984761D01*
X107310748Y-98984767D01*
X107330619Y-99072939D01*
X107358722Y-99197639D01*
X107442766Y-99404616D01*
X107559487Y-99595088D01*
X107705750Y-99763938D01*
X107877626Y-99906632D01*
X107948095Y-99947811D01*
X107950945Y-99949476D01*
X107999669Y-100001114D01*
X108012740Y-100070897D01*
X107986009Y-100136669D01*
X107945555Y-100170027D01*
X107933107Y-100176507D01*
X107928974Y-100179610D01*
X107928971Y-100179612D01*
X107904747Y-100197800D01*
X107754465Y-100310635D01*
X107600129Y-100472138D01*
X107474243Y-100656680D01*
X107380188Y-100859305D01*
X107320489Y-101074570D01*
X107296751Y-101296695D01*
X107297048Y-101301848D01*
X107297048Y-101301851D01*
X107302511Y-101396590D01*
X107309610Y-101519715D01*
X107310747Y-101524761D01*
X107310748Y-101524767D01*
X107330619Y-101612939D01*
X107358722Y-101737639D01*
X107442766Y-101944616D01*
X107559487Y-102135088D01*
X107705750Y-102303938D01*
X107877626Y-102446632D01*
X107948095Y-102487811D01*
X107950945Y-102489476D01*
X107999669Y-102541114D01*
X108012740Y-102610897D01*
X107986009Y-102676669D01*
X107945555Y-102710027D01*
X107933107Y-102716507D01*
X107928974Y-102719610D01*
X107928971Y-102719612D01*
X107904747Y-102737800D01*
X107754465Y-102850635D01*
X107600129Y-103012138D01*
X107597215Y-103016410D01*
X107597214Y-103016411D01*
X107584904Y-103034457D01*
X107474243Y-103196680D01*
X107380188Y-103399305D01*
X107320489Y-103614570D01*
X107296751Y-103836695D01*
X107297048Y-103841848D01*
X107297048Y-103841851D01*
X107302511Y-103936590D01*
X107309610Y-104059715D01*
X107310747Y-104064761D01*
X107310748Y-104064767D01*
X107324097Y-104124000D01*
X107358722Y-104277639D01*
X107442766Y-104484616D01*
X107445465Y-104489020D01*
X107544086Y-104649955D01*
X107559487Y-104675088D01*
X107705750Y-104843938D01*
X107877626Y-104986632D01*
X107948095Y-105027811D01*
X107950945Y-105029476D01*
X107999669Y-105081114D01*
X108012740Y-105150897D01*
X107986009Y-105216669D01*
X107945555Y-105250027D01*
X107933107Y-105256507D01*
X107928974Y-105259610D01*
X107928971Y-105259612D01*
X107770891Y-105378302D01*
X107754465Y-105390635D01*
X107600129Y-105552138D01*
X107474243Y-105736680D01*
X107380188Y-105939305D01*
X107320489Y-106154570D01*
X107296751Y-106376695D01*
X107297048Y-106381848D01*
X107297048Y-106381851D01*
X107306683Y-106548959D01*
X107309610Y-106599715D01*
X107310747Y-106604761D01*
X107310748Y-106604767D01*
X107321200Y-106651144D01*
X107358722Y-106817639D01*
X107442766Y-107024616D01*
X107445465Y-107029020D01*
X107542345Y-107187114D01*
X107559487Y-107215088D01*
X107705750Y-107383938D01*
X107877626Y-107526632D01*
X107928633Y-107556438D01*
X107950945Y-107569476D01*
X107999669Y-107621114D01*
X108012740Y-107690897D01*
X107986009Y-107756669D01*
X107945555Y-107790027D01*
X107933107Y-107796507D01*
X107928974Y-107799610D01*
X107928971Y-107799612D01*
X107759666Y-107926730D01*
X107754465Y-107930635D01*
X107600129Y-108092138D01*
X107597215Y-108096410D01*
X107597214Y-108096411D01*
X107584904Y-108114457D01*
X107474243Y-108276680D01*
X107427216Y-108377992D01*
X107391823Y-108454240D01*
X107380188Y-108479305D01*
X107320489Y-108694570D01*
X107296751Y-108916695D01*
X107297048Y-108921848D01*
X107297048Y-108921851D01*
X107303243Y-109029283D01*
X107309610Y-109139715D01*
X107310747Y-109144761D01*
X107310748Y-109144767D01*
X107314998Y-109163625D01*
X107358722Y-109357639D01*
X107442766Y-109564616D01*
X107445465Y-109569020D01*
X107554642Y-109747181D01*
X107559487Y-109755088D01*
X107705750Y-109923938D01*
X107877626Y-110066632D01*
X107948095Y-110107811D01*
X107950945Y-110109476D01*
X107999669Y-110161114D01*
X108012740Y-110230897D01*
X107986009Y-110296669D01*
X107945555Y-110330027D01*
X107933107Y-110336507D01*
X107928974Y-110339610D01*
X107928971Y-110339612D01*
X107904747Y-110357800D01*
X107754465Y-110470635D01*
X107600129Y-110632138D01*
X107474243Y-110816680D01*
X107380188Y-111019305D01*
X107320489Y-111234570D01*
X107296751Y-111456695D01*
X107297048Y-111461848D01*
X107297048Y-111461851D01*
X107308463Y-111659819D01*
X107309610Y-111679715D01*
X107310747Y-111684761D01*
X107310748Y-111684767D01*
X107332892Y-111783023D01*
X107358722Y-111897639D01*
X107396961Y-111991811D01*
X107427150Y-112066157D01*
X107442766Y-112104616D01*
X107454944Y-112124489D01*
X107537741Y-112259601D01*
X107559487Y-112295088D01*
X107705750Y-112463938D01*
X107877626Y-112606632D01*
X107948095Y-112647811D01*
X107950945Y-112649476D01*
X107999669Y-112701114D01*
X108012740Y-112770897D01*
X107986009Y-112836669D01*
X107945555Y-112870027D01*
X107933107Y-112876507D01*
X107928974Y-112879610D01*
X107928971Y-112879612D01*
X107763186Y-113004087D01*
X107754465Y-113010635D01*
X107600129Y-113172138D01*
X107474243Y-113356680D01*
X107380188Y-113559305D01*
X107320489Y-113774570D01*
X107296751Y-113996695D01*
X107297048Y-114001848D01*
X107297048Y-114001851D01*
X107302511Y-114096590D01*
X107309610Y-114219715D01*
X107310747Y-114224761D01*
X107310748Y-114224767D01*
X107316363Y-114249680D01*
X107358722Y-114437639D01*
X107442766Y-114644616D01*
X107559487Y-114835088D01*
X107705750Y-115003938D01*
X107877626Y-115146632D01*
X107948095Y-115187811D01*
X107950945Y-115189476D01*
X107999669Y-115241114D01*
X108012740Y-115310897D01*
X107986009Y-115376669D01*
X107945555Y-115410027D01*
X107933107Y-115416507D01*
X107928974Y-115419610D01*
X107928971Y-115419612D01*
X107758600Y-115547530D01*
X107754465Y-115550635D01*
X107600129Y-115712138D01*
X107474243Y-115896680D01*
X107458503Y-115930590D01*
X107384431Y-116090165D01*
X107380188Y-116099305D01*
X107320489Y-116314570D01*
X107296751Y-116536695D01*
X107297048Y-116541848D01*
X107297048Y-116541851D01*
X107303386Y-116651777D01*
X107309610Y-116759715D01*
X107310747Y-116764761D01*
X107310748Y-116764767D01*
X107322512Y-116816964D01*
X107358722Y-116977639D01*
X107360665Y-116982425D01*
X107360667Y-116982430D01*
X107387737Y-117049097D01*
X107394833Y-117119738D01*
X107362610Y-117183001D01*
X107301301Y-117218801D01*
X107270994Y-117222500D01*
X94231500Y-117222500D01*
X94163379Y-117202498D01*
X94116886Y-117148842D01*
X94105500Y-117096500D01*
X94105500Y-74246768D01*
X94106027Y-74235585D01*
X94107702Y-74228092D01*
X94106890Y-74202238D01*
X94105562Y-74160002D01*
X94105500Y-74156044D01*
X94105500Y-74128144D01*
X94104996Y-74124153D01*
X94104063Y-74112311D01*
X94103724Y-74101498D01*
X94102674Y-74068111D01*
X94097021Y-74048652D01*
X94093012Y-74029293D01*
X94092705Y-74026860D01*
X94090474Y-74009203D01*
X94087558Y-74001837D01*
X94087556Y-74001831D01*
X94074200Y-73968098D01*
X94070355Y-73956868D01*
X94060230Y-73922017D01*
X94060230Y-73922016D01*
X94058019Y-73914407D01*
X94047705Y-73896966D01*
X94039008Y-73879213D01*
X94034472Y-73867758D01*
X94031552Y-73860383D01*
X94005563Y-73824612D01*
X93999047Y-73814692D01*
X93988962Y-73797639D01*
X93976542Y-73776638D01*
X93962221Y-73762317D01*
X93949380Y-73747283D01*
X93942131Y-73737306D01*
X93937472Y-73730893D01*
X93903395Y-73702702D01*
X93894616Y-73694712D01*
X90777790Y-70577885D01*
X107301500Y-70577885D01*
X107305975Y-70593124D01*
X107307365Y-70594329D01*
X107315048Y-70596000D01*
X108387385Y-70596000D01*
X108402624Y-70591525D01*
X108403829Y-70590135D01*
X108405500Y-70582452D01*
X108405500Y-70577885D01*
X108913500Y-70577885D01*
X108917975Y-70593124D01*
X108919365Y-70594329D01*
X108927048Y-70596000D01*
X109999384Y-70596000D01*
X110014623Y-70591525D01*
X110015828Y-70590135D01*
X110017499Y-70582452D01*
X110017499Y-69955331D01*
X110017129Y-69948510D01*
X110011605Y-69897648D01*
X110007979Y-69882396D01*
X109962824Y-69761946D01*
X109954286Y-69746351D01*
X109877785Y-69644276D01*
X109865224Y-69631715D01*
X109763149Y-69555214D01*
X109747554Y-69546676D01*
X109627106Y-69501522D01*
X109611851Y-69497895D01*
X109560986Y-69492369D01*
X109554172Y-69492000D01*
X108931615Y-69492000D01*
X108916376Y-69496475D01*
X108915171Y-69497865D01*
X108913500Y-69505548D01*
X108913500Y-70577885D01*
X108405500Y-70577885D01*
X108405500Y-69510116D01*
X108401025Y-69494877D01*
X108399635Y-69493672D01*
X108391952Y-69492001D01*
X107764831Y-69492001D01*
X107758010Y-69492371D01*
X107707148Y-69497895D01*
X107691896Y-69501521D01*
X107571446Y-69546676D01*
X107555851Y-69555214D01*
X107453776Y-69631715D01*
X107441215Y-69644276D01*
X107364714Y-69746351D01*
X107356176Y-69761946D01*
X107311022Y-69882394D01*
X107307395Y-69897649D01*
X107301869Y-69948514D01*
X107301500Y-69955328D01*
X107301500Y-70577885D01*
X90777790Y-70577885D01*
X90657652Y-70457747D01*
X90650112Y-70449461D01*
X90646000Y-70442982D01*
X90596348Y-70396356D01*
X90593507Y-70393602D01*
X90573770Y-70373865D01*
X90570573Y-70371385D01*
X90561551Y-70363680D01*
X90535100Y-70338841D01*
X90529321Y-70333414D01*
X90522375Y-70329595D01*
X90522372Y-70329593D01*
X90511566Y-70323652D01*
X90495047Y-70312801D01*
X90494583Y-70312441D01*
X90479041Y-70300386D01*
X90471772Y-70297241D01*
X90471768Y-70297238D01*
X90438463Y-70282826D01*
X90427813Y-70277609D01*
X90389060Y-70256305D01*
X90369437Y-70251267D01*
X90350734Y-70244863D01*
X90339420Y-70239967D01*
X90339419Y-70239967D01*
X90332145Y-70236819D01*
X90324322Y-70235580D01*
X90324312Y-70235577D01*
X90288476Y-70229901D01*
X90276856Y-70227495D01*
X90241711Y-70218472D01*
X90241710Y-70218472D01*
X90234030Y-70216500D01*
X90213776Y-70216500D01*
X90194065Y-70214949D01*
X90181886Y-70213020D01*
X90174057Y-70211780D01*
X90166165Y-70212526D01*
X90130039Y-70215941D01*
X90118181Y-70216500D01*
X84744000Y-70216500D01*
X84675879Y-70196498D01*
X84629386Y-70142842D01*
X84618000Y-70090500D01*
X84618000Y-69951866D01*
X84611245Y-69889684D01*
X84560115Y-69753295D01*
X84472761Y-69636739D01*
X84356205Y-69549385D01*
X84219816Y-69498255D01*
X84157634Y-69491500D01*
X82361366Y-69491500D01*
X82299184Y-69498255D01*
X82162795Y-69549385D01*
X82046239Y-69636739D01*
X81958885Y-69753295D01*
X81907755Y-69889684D01*
X81901000Y-69951866D01*
X81901000Y-71748134D01*
X81907755Y-71810316D01*
X81958885Y-71946705D01*
X82046239Y-72063261D01*
X82162795Y-72150615D01*
X82171204Y-72153767D01*
X82171205Y-72153768D01*
X82279951Y-72194535D01*
X82336716Y-72237176D01*
X82361416Y-72303738D01*
X82346209Y-72373087D01*
X82326816Y-72399568D01*
X82200129Y-72532138D01*
X82074243Y-72716680D01*
X81980188Y-72919305D01*
X81920489Y-73134570D01*
X81896751Y-73356695D01*
X81897048Y-73361848D01*
X81897048Y-73361851D01*
X81902511Y-73456590D01*
X81909610Y-73579715D01*
X81910747Y-73584761D01*
X81910748Y-73584767D01*
X81916363Y-73609680D01*
X81958722Y-73797639D01*
X82042766Y-74004616D01*
X82063918Y-74039133D01*
X82135698Y-74156267D01*
X82159487Y-74195088D01*
X82305750Y-74363938D01*
X82477626Y-74506632D01*
X82548095Y-74547811D01*
X82550945Y-74549476D01*
X82599669Y-74601114D01*
X82612740Y-74670897D01*
X82586009Y-74736669D01*
X82545555Y-74770027D01*
X82533107Y-74776507D01*
X82528974Y-74779610D01*
X82528971Y-74779612D01*
X82358600Y-74907530D01*
X82354465Y-74910635D01*
X82350893Y-74914373D01*
X82243595Y-75026654D01*
X82200129Y-75072138D01*
X82074243Y-75256680D01*
X82058503Y-75290590D01*
X82001389Y-75413632D01*
X81980188Y-75459305D01*
X81920489Y-75674570D01*
X81896751Y-75896695D01*
X81897048Y-75901848D01*
X81897048Y-75901851D01*
X81909312Y-76114547D01*
X81909610Y-76119715D01*
X81910747Y-76124761D01*
X81910748Y-76124767D01*
X81930619Y-76212939D01*
X81958722Y-76337639D01*
X82042766Y-76544616D01*
X82045465Y-76549020D01*
X82152724Y-76724051D01*
X82159487Y-76735088D01*
X82305750Y-76903938D01*
X82477626Y-77046632D01*
X82510122Y-77065621D01*
X82550945Y-77089476D01*
X82599669Y-77141114D01*
X82612740Y-77210897D01*
X82586009Y-77276669D01*
X82545555Y-77310027D01*
X82533107Y-77316507D01*
X82528974Y-77319610D01*
X82528971Y-77319612D01*
X82408278Y-77410231D01*
X82354465Y-77450635D01*
X82200129Y-77612138D01*
X82197215Y-77616410D01*
X82197214Y-77616411D01*
X82112056Y-77741249D01*
X82074243Y-77796680D01*
X82058503Y-77830590D01*
X81988748Y-77980865D01*
X81980188Y-77999305D01*
X81920489Y-78214570D01*
X81896751Y-78436695D01*
X81897048Y-78441848D01*
X81897048Y-78441851D01*
X81903150Y-78547676D01*
X81909610Y-78659715D01*
X81910747Y-78664761D01*
X81910748Y-78664767D01*
X81916667Y-78691031D01*
X81958722Y-78877639D01*
X82004444Y-78990240D01*
X82040486Y-79079000D01*
X82042766Y-79084616D01*
X82159487Y-79275088D01*
X82305750Y-79443938D01*
X82450328Y-79563969D01*
X82468942Y-79579422D01*
X82477626Y-79586632D01*
X82548095Y-79627811D01*
X82550945Y-79629476D01*
X82599669Y-79681114D01*
X82612740Y-79750897D01*
X82586009Y-79816669D01*
X82545555Y-79850027D01*
X82533107Y-79856507D01*
X82528974Y-79859610D01*
X82528971Y-79859612D01*
X82504747Y-79877800D01*
X82354465Y-79990635D01*
X82200129Y-80152138D01*
X82074243Y-80336680D01*
X81980188Y-80539305D01*
X81920489Y-80754570D01*
X81896751Y-80976695D01*
X81897048Y-80981848D01*
X81897048Y-80981851D01*
X81902511Y-81076590D01*
X81909610Y-81199715D01*
X81910747Y-81204761D01*
X81910748Y-81204767D01*
X81930619Y-81292939D01*
X81958722Y-81417639D01*
X82042766Y-81624616D01*
X82159487Y-81815088D01*
X82305750Y-81983938D01*
X82477626Y-82126632D01*
X82548095Y-82167811D01*
X82550945Y-82169476D01*
X82599669Y-82221114D01*
X82612740Y-82290897D01*
X82586009Y-82356669D01*
X82545555Y-82390027D01*
X82533107Y-82396507D01*
X82528974Y-82399610D01*
X82528971Y-82399612D01*
X82377020Y-82513700D01*
X82354465Y-82530635D01*
X82350893Y-82534373D01*
X82236037Y-82654563D01*
X82200129Y-82692138D01*
X82074243Y-82876680D01*
X81980188Y-83079305D01*
X81920489Y-83294570D01*
X81896751Y-83516695D01*
X81897048Y-83521848D01*
X81897048Y-83521851D01*
X81902511Y-83616590D01*
X81909610Y-83739715D01*
X81910747Y-83744761D01*
X81910748Y-83744767D01*
X81930619Y-83832939D01*
X81958722Y-83957639D01*
X82042766Y-84164616D01*
X82159487Y-84355088D01*
X82305750Y-84523938D01*
X82477626Y-84666632D01*
X82548095Y-84707811D01*
X82550945Y-84709476D01*
X82599669Y-84761114D01*
X82612740Y-84830897D01*
X82586009Y-84896669D01*
X82545555Y-84930027D01*
X82533107Y-84936507D01*
X82528974Y-84939610D01*
X82528971Y-84939612D01*
X82504747Y-84957800D01*
X82354465Y-85070635D01*
X82200129Y-85232138D01*
X82197215Y-85236410D01*
X82197214Y-85236411D01*
X82184904Y-85254457D01*
X82074243Y-85416680D01*
X81980188Y-85619305D01*
X81920489Y-85834570D01*
X81896751Y-86056695D01*
X81897048Y-86061848D01*
X81897048Y-86061851D01*
X81902511Y-86156590D01*
X81909610Y-86279715D01*
X81910747Y-86284761D01*
X81910748Y-86284767D01*
X81924097Y-86344000D01*
X81958722Y-86497639D01*
X82042766Y-86704616D01*
X82159487Y-86895088D01*
X82305750Y-87063938D01*
X82477626Y-87206632D01*
X82548095Y-87247811D01*
X82550945Y-87249476D01*
X82599669Y-87301114D01*
X82612740Y-87370897D01*
X82586009Y-87436669D01*
X82545555Y-87470027D01*
X82533107Y-87476507D01*
X82528974Y-87479610D01*
X82528971Y-87479612D01*
X82504747Y-87497800D01*
X82354465Y-87610635D01*
X82200129Y-87772138D01*
X82074243Y-87956680D01*
X82035511Y-88040121D01*
X81998971Y-88118841D01*
X81980188Y-88159305D01*
X81920489Y-88374570D01*
X81896751Y-88596695D01*
X81897048Y-88601848D01*
X81897048Y-88601851D01*
X81902511Y-88696590D01*
X81909610Y-88819715D01*
X81910747Y-88824761D01*
X81910748Y-88824767D01*
X81930619Y-88912939D01*
X81958722Y-89037639D01*
X82042766Y-89244616D01*
X82159487Y-89435088D01*
X82305750Y-89603938D01*
X82477626Y-89746632D01*
X82548095Y-89787811D01*
X82550945Y-89789476D01*
X82599669Y-89841114D01*
X82612740Y-89910897D01*
X82586009Y-89976669D01*
X82545555Y-90010027D01*
X82533107Y-90016507D01*
X82528974Y-90019610D01*
X82528971Y-90019612D01*
X82504747Y-90037800D01*
X82354465Y-90150635D01*
X82200129Y-90312138D01*
X82074243Y-90496680D01*
X81980188Y-90699305D01*
X81920489Y-90914570D01*
X81896751Y-91136695D01*
X81897048Y-91141848D01*
X81897048Y-91141851D01*
X81902511Y-91236590D01*
X81909610Y-91359715D01*
X81910747Y-91364761D01*
X81910748Y-91364767D01*
X81930619Y-91452939D01*
X81958722Y-91577639D01*
X82042766Y-91784616D01*
X82064914Y-91820758D01*
X82156411Y-91970068D01*
X82159487Y-91975088D01*
X82305750Y-92143938D01*
X82477626Y-92286632D01*
X82548095Y-92327811D01*
X82550945Y-92329476D01*
X82599669Y-92381114D01*
X82612740Y-92450897D01*
X82586009Y-92516669D01*
X82545555Y-92550027D01*
X82533107Y-92556507D01*
X82528974Y-92559610D01*
X82528971Y-92559612D01*
X82504747Y-92577800D01*
X82354465Y-92690635D01*
X82200129Y-92852138D01*
X82074243Y-93036680D01*
X81980188Y-93239305D01*
X81920489Y-93454570D01*
X81896751Y-93676695D01*
X81897048Y-93681848D01*
X81897048Y-93681851D01*
X81902511Y-93776590D01*
X81909610Y-93899715D01*
X81910747Y-93904761D01*
X81910748Y-93904767D01*
X81930619Y-93992939D01*
X81958722Y-94117639D01*
X82042766Y-94324616D01*
X82159487Y-94515088D01*
X82305750Y-94683938D01*
X82477626Y-94826632D01*
X82548095Y-94867811D01*
X82550945Y-94869476D01*
X82599669Y-94921114D01*
X82612740Y-94990897D01*
X82586009Y-95056669D01*
X82545555Y-95090027D01*
X82533107Y-95096507D01*
X82528974Y-95099610D01*
X82528971Y-95099612D01*
X82504747Y-95117800D01*
X82354465Y-95230635D01*
X82200129Y-95392138D01*
X82074243Y-95576680D01*
X81980188Y-95779305D01*
X81920489Y-95994570D01*
X81896751Y-96216695D01*
X81897048Y-96221848D01*
X81897048Y-96221851D01*
X81902511Y-96316590D01*
X81909610Y-96439715D01*
X81910747Y-96444761D01*
X81910748Y-96444767D01*
X81930619Y-96532939D01*
X81958722Y-96657639D01*
X82042766Y-96864616D01*
X82159487Y-97055088D01*
X82305750Y-97223938D01*
X82477626Y-97366632D01*
X82548095Y-97407811D01*
X82550945Y-97409476D01*
X82599669Y-97461114D01*
X82612740Y-97530897D01*
X82586009Y-97596669D01*
X82545555Y-97630027D01*
X82533107Y-97636507D01*
X82528974Y-97639610D01*
X82528971Y-97639612D01*
X82504747Y-97657800D01*
X82354465Y-97770635D01*
X82200129Y-97932138D01*
X82074243Y-98116680D01*
X82035511Y-98200121D01*
X81998971Y-98278841D01*
X81980188Y-98319305D01*
X81920489Y-98534570D01*
X81896751Y-98756695D01*
X81897048Y-98761848D01*
X81897048Y-98761851D01*
X81902511Y-98856590D01*
X81909610Y-98979715D01*
X81910747Y-98984761D01*
X81910748Y-98984767D01*
X81930619Y-99072939D01*
X81958722Y-99197639D01*
X82042766Y-99404616D01*
X82159487Y-99595088D01*
X82305750Y-99763938D01*
X82477626Y-99906632D01*
X82548095Y-99947811D01*
X82550945Y-99949476D01*
X82599669Y-100001114D01*
X82612740Y-100070897D01*
X82586009Y-100136669D01*
X82545555Y-100170027D01*
X82533107Y-100176507D01*
X82528974Y-100179610D01*
X82528971Y-100179612D01*
X82504747Y-100197800D01*
X82354465Y-100310635D01*
X82200129Y-100472138D01*
X82074243Y-100656680D01*
X81980188Y-100859305D01*
X81920489Y-101074570D01*
X81896751Y-101296695D01*
X81897048Y-101301848D01*
X81897048Y-101301851D01*
X81902511Y-101396590D01*
X81909610Y-101519715D01*
X81910747Y-101524761D01*
X81910748Y-101524767D01*
X81930619Y-101612939D01*
X81958722Y-101737639D01*
X82042766Y-101944616D01*
X82159487Y-102135088D01*
X82305750Y-102303938D01*
X82477626Y-102446632D01*
X82550945Y-102489476D01*
X82551455Y-102489774D01*
X82600179Y-102541412D01*
X82613250Y-102611195D01*
X82586519Y-102676967D01*
X82546062Y-102710327D01*
X82537957Y-102714546D01*
X82529238Y-102720036D01*
X82358933Y-102847905D01*
X82351226Y-102854748D01*
X82204090Y-103008717D01*
X82197604Y-103016727D01*
X82077598Y-103192649D01*
X82072500Y-103201623D01*
X81982838Y-103394783D01*
X81979275Y-103404470D01*
X81923889Y-103604183D01*
X81925412Y-103612607D01*
X81937792Y-103616000D01*
X84577844Y-103616000D01*
X84591375Y-103612027D01*
X84592680Y-103602947D01*
X84550714Y-103435875D01*
X84547394Y-103426124D01*
X84462472Y-103230814D01*
X84457605Y-103221739D01*
X84341926Y-103042926D01*
X84335636Y-103034757D01*
X84192306Y-102877240D01*
X84184773Y-102870215D01*
X84017639Y-102738222D01*
X84009056Y-102732520D01*
X83972102Y-102712120D01*
X83922131Y-102661687D01*
X83907359Y-102592245D01*
X83932475Y-102525839D01*
X83959827Y-102499232D01*
X83983297Y-102482491D01*
X84139360Y-102371173D01*
X84297596Y-102213489D01*
X84357094Y-102130689D01*
X84424935Y-102036277D01*
X84427953Y-102032077D01*
X84526930Y-101831811D01*
X84591870Y-101618069D01*
X84621029Y-101396590D01*
X84622656Y-101330000D01*
X84604352Y-101107361D01*
X84549931Y-100890702D01*
X84460854Y-100685840D01*
X84339514Y-100498277D01*
X84189170Y-100333051D01*
X84185119Y-100329852D01*
X84185115Y-100329848D01*
X84017914Y-100197800D01*
X84017910Y-100197798D01*
X84013859Y-100194598D01*
X83972553Y-100171796D01*
X83922584Y-100121364D01*
X83907812Y-100051921D01*
X83932928Y-99985516D01*
X83960280Y-99958909D01*
X84004103Y-99927650D01*
X84139360Y-99831173D01*
X84297596Y-99673489D01*
X84357094Y-99590689D01*
X84424935Y-99496277D01*
X84427953Y-99492077D01*
X84431645Y-99484608D01*
X84524636Y-99296453D01*
X84524637Y-99296451D01*
X84526930Y-99291811D01*
X84591870Y-99078069D01*
X84621029Y-98856590D01*
X84622656Y-98790000D01*
X84604352Y-98567361D01*
X84549931Y-98350702D01*
X84460854Y-98145840D01*
X84339514Y-97958277D01*
X84189170Y-97793051D01*
X84185119Y-97789852D01*
X84185115Y-97789848D01*
X84017914Y-97657800D01*
X84017910Y-97657798D01*
X84013859Y-97654598D01*
X83972553Y-97631796D01*
X83922584Y-97581364D01*
X83907812Y-97511921D01*
X83932928Y-97445516D01*
X83960280Y-97418909D01*
X84004103Y-97387650D01*
X84139360Y-97291173D01*
X84297596Y-97133489D01*
X84357094Y-97050689D01*
X84424935Y-96956277D01*
X84427953Y-96952077D01*
X84526930Y-96751811D01*
X84591870Y-96538069D01*
X84621029Y-96316590D01*
X84622656Y-96250000D01*
X84604352Y-96027361D01*
X84549931Y-95810702D01*
X84460854Y-95605840D01*
X84339514Y-95418277D01*
X84189170Y-95253051D01*
X84185119Y-95249852D01*
X84185115Y-95249848D01*
X84017914Y-95117800D01*
X84017910Y-95117798D01*
X84013859Y-95114598D01*
X83972553Y-95091796D01*
X83922584Y-95041364D01*
X83907812Y-94971921D01*
X83932928Y-94905516D01*
X83960280Y-94878909D01*
X84004103Y-94847650D01*
X84139360Y-94751173D01*
X84297596Y-94593489D01*
X84357094Y-94510689D01*
X84424935Y-94416277D01*
X84427953Y-94412077D01*
X84526930Y-94211811D01*
X84591870Y-93998069D01*
X84621029Y-93776590D01*
X84622656Y-93710000D01*
X84604352Y-93487361D01*
X84549931Y-93270702D01*
X84460854Y-93065840D01*
X84339514Y-92878277D01*
X84189170Y-92713051D01*
X84185119Y-92709852D01*
X84185115Y-92709848D01*
X84017914Y-92577800D01*
X84017910Y-92577798D01*
X84013859Y-92574598D01*
X83972553Y-92551796D01*
X83922584Y-92501364D01*
X83907812Y-92431921D01*
X83932928Y-92365516D01*
X83960280Y-92338909D01*
X84004103Y-92307650D01*
X84139360Y-92211173D01*
X84162707Y-92187908D01*
X84239855Y-92111029D01*
X84297596Y-92053489D01*
X84334845Y-92001652D01*
X84424935Y-91876277D01*
X84427953Y-91872077D01*
X84453317Y-91820758D01*
X84524636Y-91676453D01*
X84524637Y-91676451D01*
X84526930Y-91671811D01*
X84591870Y-91458069D01*
X84621029Y-91236590D01*
X84622656Y-91170000D01*
X84604352Y-90947361D01*
X84549931Y-90730702D01*
X84460854Y-90525840D01*
X84339514Y-90338277D01*
X84189170Y-90173051D01*
X84185119Y-90169852D01*
X84185115Y-90169848D01*
X84017914Y-90037800D01*
X84017910Y-90037798D01*
X84013859Y-90034598D01*
X83972553Y-90011796D01*
X83922584Y-89961364D01*
X83907812Y-89891921D01*
X83932928Y-89825516D01*
X83960280Y-89798909D01*
X84004103Y-89767650D01*
X84139360Y-89671173D01*
X84297596Y-89513489D01*
X84357094Y-89430689D01*
X84424935Y-89336277D01*
X84427953Y-89332077D01*
X84431645Y-89324608D01*
X84524636Y-89136453D01*
X84524637Y-89136451D01*
X84526930Y-89131811D01*
X84591870Y-88918069D01*
X84621029Y-88696590D01*
X84622656Y-88630000D01*
X84604352Y-88407361D01*
X84549931Y-88190702D01*
X84460854Y-87985840D01*
X84339514Y-87798277D01*
X84189170Y-87633051D01*
X84185119Y-87629852D01*
X84185115Y-87629848D01*
X84017914Y-87497800D01*
X84017910Y-87497798D01*
X84013859Y-87494598D01*
X83972553Y-87471796D01*
X83922584Y-87421364D01*
X83907812Y-87351921D01*
X83932928Y-87285516D01*
X83960280Y-87258909D01*
X84004103Y-87227650D01*
X84139360Y-87131173D01*
X84297596Y-86973489D01*
X84357094Y-86890689D01*
X84424935Y-86796277D01*
X84427953Y-86792077D01*
X84526930Y-86591811D01*
X84591870Y-86378069D01*
X84621029Y-86156590D01*
X84622656Y-86090000D01*
X84604352Y-85867361D01*
X84549931Y-85650702D01*
X84460854Y-85445840D01*
X84339514Y-85258277D01*
X84189170Y-85093051D01*
X84185119Y-85089852D01*
X84185115Y-85089848D01*
X84017914Y-84957800D01*
X84017910Y-84957798D01*
X84013859Y-84954598D01*
X83972553Y-84931796D01*
X83922584Y-84881364D01*
X83907812Y-84811921D01*
X83932928Y-84745516D01*
X83960280Y-84718909D01*
X84004103Y-84687650D01*
X84139360Y-84591173D01*
X84297596Y-84433489D01*
X84357094Y-84350689D01*
X84424935Y-84256277D01*
X84427953Y-84252077D01*
X84526930Y-84051811D01*
X84591870Y-83838069D01*
X84621029Y-83616590D01*
X84622656Y-83550000D01*
X84604352Y-83327361D01*
X84549931Y-83110702D01*
X84460854Y-82905840D01*
X84339514Y-82718277D01*
X84189170Y-82553051D01*
X84185119Y-82549852D01*
X84185115Y-82549848D01*
X84017914Y-82417800D01*
X84017910Y-82417798D01*
X84013859Y-82414598D01*
X83972553Y-82391796D01*
X83922584Y-82341364D01*
X83907812Y-82271921D01*
X83932928Y-82205516D01*
X83960280Y-82178909D01*
X84004103Y-82147650D01*
X84139360Y-82051173D01*
X84297596Y-81893489D01*
X84357094Y-81810689D01*
X84424935Y-81716277D01*
X84427953Y-81712077D01*
X84526930Y-81511811D01*
X84591870Y-81298069D01*
X84621029Y-81076590D01*
X84622656Y-81010000D01*
X84604352Y-80787361D01*
X84549931Y-80570702D01*
X84460854Y-80365840D01*
X84339514Y-80178277D01*
X84189170Y-80013051D01*
X84185119Y-80009852D01*
X84185115Y-80009848D01*
X84017914Y-79877800D01*
X84017910Y-79877798D01*
X84013859Y-79874598D01*
X83972553Y-79851796D01*
X83922584Y-79801364D01*
X83907812Y-79731921D01*
X83932928Y-79665516D01*
X83960280Y-79638909D01*
X84004103Y-79607650D01*
X84139360Y-79511173D01*
X84143743Y-79506806D01*
X84239633Y-79411250D01*
X84297596Y-79353489D01*
X84316630Y-79327001D01*
X84424935Y-79176277D01*
X84427953Y-79172077D01*
X84434184Y-79159471D01*
X84524636Y-78976453D01*
X84524637Y-78976451D01*
X84526930Y-78971811D01*
X84591870Y-78758069D01*
X84621029Y-78536590D01*
X84622656Y-78470000D01*
X84604352Y-78247361D01*
X84549931Y-78030702D01*
X84460854Y-77825840D01*
X84365680Y-77678723D01*
X84342322Y-77642617D01*
X84342320Y-77642614D01*
X84339514Y-77638277D01*
X84189170Y-77473051D01*
X84185119Y-77469852D01*
X84185115Y-77469848D01*
X84017914Y-77337800D01*
X84017910Y-77337798D01*
X84013859Y-77334598D01*
X83972553Y-77311796D01*
X83922584Y-77261364D01*
X83907812Y-77191921D01*
X83932928Y-77125516D01*
X83960280Y-77098909D01*
X84006948Y-77065621D01*
X84139360Y-76971173D01*
X84217188Y-76893617D01*
X84293935Y-76817137D01*
X84297596Y-76813489D01*
X84357094Y-76730689D01*
X84424935Y-76636277D01*
X84427953Y-76632077D01*
X84431645Y-76624608D01*
X84524636Y-76436453D01*
X84524637Y-76436451D01*
X84526930Y-76431811D01*
X84583860Y-76244433D01*
X84590365Y-76223023D01*
X84590365Y-76223021D01*
X84591870Y-76218069D01*
X84621029Y-75996590D01*
X84622656Y-75930000D01*
X84604352Y-75707361D01*
X84549931Y-75490702D01*
X84460854Y-75285840D01*
X84406161Y-75201298D01*
X84342322Y-75102617D01*
X84342320Y-75102614D01*
X84339514Y-75098277D01*
X84189170Y-74933051D01*
X84185119Y-74929852D01*
X84185115Y-74929848D01*
X84017914Y-74797800D01*
X84017910Y-74797798D01*
X84013859Y-74794598D01*
X83972553Y-74771796D01*
X83922584Y-74721364D01*
X83907812Y-74651921D01*
X83932928Y-74585516D01*
X83960280Y-74558909D01*
X84004103Y-74527650D01*
X84139360Y-74431173D01*
X84297596Y-74273489D01*
X84325546Y-74234593D01*
X84424935Y-74096277D01*
X84427953Y-74092077D01*
X84454120Y-74039133D01*
X84524636Y-73896453D01*
X84524637Y-73896451D01*
X84526930Y-73891811D01*
X84561922Y-73776638D01*
X84590365Y-73683023D01*
X84590365Y-73683021D01*
X84591870Y-73678069D01*
X84621029Y-73456590D01*
X84621576Y-73434217D01*
X84622574Y-73393365D01*
X84622574Y-73393361D01*
X84622656Y-73390000D01*
X84604352Y-73167361D01*
X84549931Y-72950702D01*
X84460854Y-72745840D01*
X84339514Y-72558277D01*
X84331199Y-72549139D01*
X84192298Y-72396488D01*
X84161246Y-72332642D01*
X84169641Y-72262143D01*
X84214817Y-72207375D01*
X84241261Y-72193706D01*
X84347797Y-72153767D01*
X84356205Y-72150615D01*
X84472761Y-72063261D01*
X84560115Y-71946705D01*
X84611245Y-71810316D01*
X84618000Y-71748134D01*
X84618000Y-71609500D01*
X84638002Y-71541379D01*
X84691658Y-71494886D01*
X84744000Y-71483500D01*
X89839406Y-71483500D01*
X89907527Y-71503502D01*
X89928501Y-71520405D01*
X92801595Y-74393499D01*
X92835621Y-74455811D01*
X92838500Y-74482594D01*
X92838500Y-117784207D01*
X92836268Y-117807816D01*
X92834725Y-117815906D01*
X92838251Y-117871951D01*
X92838500Y-117879862D01*
X92838500Y-117895856D01*
X92840506Y-117911730D01*
X92841248Y-117919590D01*
X92844775Y-117975650D01*
X92847225Y-117983191D01*
X92847321Y-117983487D01*
X92852494Y-118006631D01*
X92852532Y-118006935D01*
X92852533Y-118006940D01*
X92853526Y-118014797D01*
X92856442Y-118022162D01*
X92856443Y-118022166D01*
X92874199Y-118067011D01*
X92876871Y-118074430D01*
X92894236Y-118127875D01*
X92898486Y-118134571D01*
X92898486Y-118134572D01*
X92898650Y-118134831D01*
X92909415Y-118155958D01*
X92909528Y-118156244D01*
X92909531Y-118156250D01*
X92912448Y-118163617D01*
X92917106Y-118170029D01*
X92920828Y-118176798D01*
X92936118Y-118246129D01*
X92911498Y-118312720D01*
X92854784Y-118355429D01*
X92810414Y-118363500D01*
X72262500Y-118363500D01*
X72194379Y-118343498D01*
X72147886Y-118289842D01*
X72136500Y-118237500D01*
X72136500Y-114346485D01*
X73536854Y-114346485D01*
X73537156Y-114350320D01*
X73560318Y-114644616D01*
X73562370Y-114670695D01*
X73627206Y-114989378D01*
X73730398Y-115297784D01*
X73732052Y-115301253D01*
X73732053Y-115301254D01*
X73737826Y-115313357D01*
X73870405Y-115591316D01*
X74045141Y-115865597D01*
X74047584Y-115868560D01*
X74047585Y-115868562D01*
X74233925Y-116094610D01*
X74252001Y-116116538D01*
X74487902Y-116340399D01*
X74749326Y-116533843D01*
X74822794Y-116575409D01*
X75029019Y-116692086D01*
X75029023Y-116692088D01*
X75032376Y-116693985D01*
X75332832Y-116818438D01*
X75436288Y-116847129D01*
X75642500Y-116904317D01*
X75642508Y-116904319D01*
X75646216Y-116905347D01*
X75967856Y-116953416D01*
X75971154Y-116953560D01*
X76082918Y-116958440D01*
X76082922Y-116958440D01*
X76084294Y-116958500D01*
X76282598Y-116958500D01*
X76524605Y-116943698D01*
X76528388Y-116942997D01*
X76528395Y-116942996D01*
X76728459Y-116905916D01*
X76844372Y-116884433D01*
X77053682Y-116818438D01*
X77150860Y-116787798D01*
X77150863Y-116787797D01*
X77154532Y-116786640D01*
X77158029Y-116785046D01*
X77158035Y-116785044D01*
X77446954Y-116653376D01*
X77446958Y-116653374D01*
X77450462Y-116651777D01*
X77453744Y-116649766D01*
X77638259Y-116536695D01*
X81896751Y-116536695D01*
X81897048Y-116541848D01*
X81897048Y-116541851D01*
X81903386Y-116651777D01*
X81909610Y-116759715D01*
X81910747Y-116764761D01*
X81910748Y-116764767D01*
X81922512Y-116816964D01*
X81958722Y-116977639D01*
X82042766Y-117184616D01*
X82159487Y-117375088D01*
X82305750Y-117543938D01*
X82477626Y-117686632D01*
X82670500Y-117799338D01*
X82675325Y-117801180D01*
X82675326Y-117801181D01*
X82693495Y-117808119D01*
X82879192Y-117879030D01*
X82884260Y-117880061D01*
X82884263Y-117880062D01*
X82961894Y-117895856D01*
X83098097Y-117923567D01*
X83103272Y-117923757D01*
X83103274Y-117923757D01*
X83316173Y-117931564D01*
X83316177Y-117931564D01*
X83321337Y-117931753D01*
X83326457Y-117931097D01*
X83326459Y-117931097D01*
X83537788Y-117904025D01*
X83537789Y-117904025D01*
X83542916Y-117903368D01*
X83581151Y-117891897D01*
X83751929Y-117840661D01*
X83751934Y-117840659D01*
X83756884Y-117839174D01*
X83957494Y-117740896D01*
X84139360Y-117611173D01*
X84297596Y-117453489D01*
X84357094Y-117370689D01*
X84424935Y-117276277D01*
X84427953Y-117272077D01*
X84452456Y-117222500D01*
X84524636Y-117076453D01*
X84524637Y-117076451D01*
X84526930Y-117071811D01*
X84583860Y-116884433D01*
X84590365Y-116863023D01*
X84590367Y-116863015D01*
X84591870Y-116858069D01*
X84621029Y-116636590D01*
X84622524Y-116575409D01*
X84622574Y-116573365D01*
X84622574Y-116573361D01*
X84622656Y-116570000D01*
X84604352Y-116347361D01*
X84549931Y-116130702D01*
X84460854Y-115925840D01*
X84339514Y-115738277D01*
X84189170Y-115573051D01*
X84185119Y-115569852D01*
X84185115Y-115569848D01*
X84017914Y-115437800D01*
X84017910Y-115437798D01*
X84013859Y-115434598D01*
X83972553Y-115411796D01*
X83922584Y-115361364D01*
X83907812Y-115291921D01*
X83932928Y-115225516D01*
X83960280Y-115198909D01*
X84004103Y-115167650D01*
X84139360Y-115071173D01*
X84297596Y-114913489D01*
X84357094Y-114830689D01*
X84424935Y-114736277D01*
X84427953Y-114732077D01*
X84456427Y-114674465D01*
X84524636Y-114536453D01*
X84524637Y-114536451D01*
X84526930Y-114531811D01*
X84591870Y-114318069D01*
X84621029Y-114096590D01*
X84622656Y-114030000D01*
X84604352Y-113807361D01*
X84549931Y-113590702D01*
X84460854Y-113385840D01*
X84339514Y-113198277D01*
X84189170Y-113033051D01*
X84185119Y-113029852D01*
X84185115Y-113029848D01*
X84017914Y-112897800D01*
X84017910Y-112897798D01*
X84013859Y-112894598D01*
X83972553Y-112871796D01*
X83922584Y-112821364D01*
X83907812Y-112751921D01*
X83932928Y-112685516D01*
X83960280Y-112658909D01*
X84004103Y-112627650D01*
X84139360Y-112531173D01*
X84166124Y-112504503D01*
X84293935Y-112377137D01*
X84297596Y-112373489D01*
X84334633Y-112321947D01*
X84424935Y-112196277D01*
X84427953Y-112192077D01*
X84526930Y-111991811D01*
X84591870Y-111778069D01*
X84621029Y-111556590D01*
X84621416Y-111540764D01*
X84622574Y-111493365D01*
X84622574Y-111493361D01*
X84622656Y-111490000D01*
X84604352Y-111267361D01*
X84549931Y-111050702D01*
X84460854Y-110845840D01*
X84339514Y-110658277D01*
X84189170Y-110493051D01*
X84185119Y-110489852D01*
X84185115Y-110489848D01*
X84017914Y-110357800D01*
X84017910Y-110357798D01*
X84013859Y-110354598D01*
X83972553Y-110331796D01*
X83922584Y-110281364D01*
X83907812Y-110211921D01*
X83932928Y-110145516D01*
X83960280Y-110118909D01*
X84004103Y-110087650D01*
X84139360Y-109991173D01*
X84297596Y-109833489D01*
X84303675Y-109825030D01*
X84424935Y-109656277D01*
X84427953Y-109652077D01*
X84436274Y-109635242D01*
X84524636Y-109456453D01*
X84524637Y-109456451D01*
X84526930Y-109451811D01*
X84591870Y-109238069D01*
X84621029Y-109016590D01*
X84621120Y-109012857D01*
X84622574Y-108953365D01*
X84622574Y-108953361D01*
X84622656Y-108950000D01*
X84604352Y-108727361D01*
X84549931Y-108510702D01*
X84460854Y-108305840D01*
X84375184Y-108173414D01*
X84342322Y-108122617D01*
X84342320Y-108122614D01*
X84339514Y-108118277D01*
X84189170Y-107953051D01*
X84185119Y-107949852D01*
X84185115Y-107949848D01*
X84017914Y-107817800D01*
X84017910Y-107817798D01*
X84013859Y-107814598D01*
X83972553Y-107791796D01*
X83922584Y-107741364D01*
X83907812Y-107671921D01*
X83932928Y-107605516D01*
X83960280Y-107578909D01*
X84018005Y-107537734D01*
X84139360Y-107451173D01*
X84189934Y-107400776D01*
X84268314Y-107322669D01*
X84297596Y-107293489D01*
X84303675Y-107285030D01*
X84424935Y-107116277D01*
X84427953Y-107112077D01*
X84434170Y-107099499D01*
X84524636Y-106916453D01*
X84524637Y-106916451D01*
X84526930Y-106911811D01*
X84591870Y-106698069D01*
X84621029Y-106476590D01*
X84621277Y-106466449D01*
X84622574Y-106413365D01*
X84622574Y-106413361D01*
X84622656Y-106410000D01*
X84604352Y-106187361D01*
X84549931Y-105970702D01*
X84460854Y-105765840D01*
X84371996Y-105628486D01*
X84342322Y-105582617D01*
X84342320Y-105582614D01*
X84339514Y-105578277D01*
X84189170Y-105413051D01*
X84185119Y-105409852D01*
X84185115Y-105409848D01*
X84017914Y-105277800D01*
X84017910Y-105277798D01*
X84013859Y-105274598D01*
X83972069Y-105251529D01*
X83922098Y-105201097D01*
X83907326Y-105131654D01*
X83932442Y-105065248D01*
X83959794Y-105038641D01*
X84134828Y-104913792D01*
X84142700Y-104907139D01*
X84293552Y-104756812D01*
X84300230Y-104748965D01*
X84424503Y-104576020D01*
X84429813Y-104567183D01*
X84524170Y-104376267D01*
X84527969Y-104366672D01*
X84589877Y-104162910D01*
X84592055Y-104152837D01*
X84593486Y-104141962D01*
X84591275Y-104127778D01*
X84578117Y-104124000D01*
X81942725Y-104124000D01*
X81929194Y-104127973D01*
X81927757Y-104137966D01*
X81958065Y-104272446D01*
X81961145Y-104282275D01*
X82041270Y-104479603D01*
X82045913Y-104488794D01*
X82157194Y-104670388D01*
X82163277Y-104678699D01*
X82302713Y-104839667D01*
X82310080Y-104846883D01*
X82473934Y-104982916D01*
X82482381Y-104988831D01*
X82551469Y-105029203D01*
X82600193Y-105080842D01*
X82613264Y-105150625D01*
X82586533Y-105216396D01*
X82546084Y-105249752D01*
X82533107Y-105256507D01*
X82528974Y-105259610D01*
X82528971Y-105259612D01*
X82370891Y-105378302D01*
X82354465Y-105390635D01*
X82200129Y-105552138D01*
X82074243Y-105736680D01*
X81980188Y-105939305D01*
X81920489Y-106154570D01*
X81896751Y-106376695D01*
X81897048Y-106381848D01*
X81897048Y-106381851D01*
X81906683Y-106548959D01*
X81909610Y-106599715D01*
X81910747Y-106604761D01*
X81910748Y-106604767D01*
X81921200Y-106651144D01*
X81958722Y-106817639D01*
X82042766Y-107024616D01*
X82045465Y-107029020D01*
X82142345Y-107187114D01*
X82159487Y-107215088D01*
X82305750Y-107383938D01*
X82477626Y-107526632D01*
X82528633Y-107556438D01*
X82550945Y-107569476D01*
X82599669Y-107621114D01*
X82612740Y-107690897D01*
X82586009Y-107756669D01*
X82545555Y-107790027D01*
X82533107Y-107796507D01*
X82528974Y-107799610D01*
X82528971Y-107799612D01*
X82359666Y-107926730D01*
X82354465Y-107930635D01*
X82200129Y-108092138D01*
X82197215Y-108096410D01*
X82197214Y-108096411D01*
X82184904Y-108114457D01*
X82074243Y-108276680D01*
X82027216Y-108377992D01*
X81991823Y-108454240D01*
X81980188Y-108479305D01*
X81920489Y-108694570D01*
X81896751Y-108916695D01*
X81897048Y-108921848D01*
X81897048Y-108921851D01*
X81903243Y-109029283D01*
X81909610Y-109139715D01*
X81910747Y-109144761D01*
X81910748Y-109144767D01*
X81914998Y-109163625D01*
X81958722Y-109357639D01*
X82042766Y-109564616D01*
X82045465Y-109569020D01*
X82154642Y-109747181D01*
X82159487Y-109755088D01*
X82305750Y-109923938D01*
X82477626Y-110066632D01*
X82548095Y-110107811D01*
X82550945Y-110109476D01*
X82599669Y-110161114D01*
X82612740Y-110230897D01*
X82586009Y-110296669D01*
X82545555Y-110330027D01*
X82533107Y-110336507D01*
X82528974Y-110339610D01*
X82528971Y-110339612D01*
X82504747Y-110357800D01*
X82354465Y-110470635D01*
X82200129Y-110632138D01*
X82074243Y-110816680D01*
X81980188Y-111019305D01*
X81920489Y-111234570D01*
X81896751Y-111456695D01*
X81897048Y-111461848D01*
X81897048Y-111461851D01*
X81908463Y-111659819D01*
X81909610Y-111679715D01*
X81910747Y-111684761D01*
X81910748Y-111684767D01*
X81932892Y-111783023D01*
X81958722Y-111897639D01*
X81996961Y-111991811D01*
X82027150Y-112066157D01*
X82042766Y-112104616D01*
X82054944Y-112124489D01*
X82137741Y-112259601D01*
X82159487Y-112295088D01*
X82305750Y-112463938D01*
X82477626Y-112606632D01*
X82548095Y-112647811D01*
X82550945Y-112649476D01*
X82599669Y-112701114D01*
X82612740Y-112770897D01*
X82586009Y-112836669D01*
X82545555Y-112870027D01*
X82533107Y-112876507D01*
X82528974Y-112879610D01*
X82528971Y-112879612D01*
X82363186Y-113004087D01*
X82354465Y-113010635D01*
X82200129Y-113172138D01*
X82074243Y-113356680D01*
X81980188Y-113559305D01*
X81920489Y-113774570D01*
X81896751Y-113996695D01*
X81897048Y-114001848D01*
X81897048Y-114001851D01*
X81902511Y-114096590D01*
X81909610Y-114219715D01*
X81910747Y-114224761D01*
X81910748Y-114224767D01*
X81916363Y-114249680D01*
X81958722Y-114437639D01*
X82042766Y-114644616D01*
X82159487Y-114835088D01*
X82305750Y-115003938D01*
X82477626Y-115146632D01*
X82548095Y-115187811D01*
X82550945Y-115189476D01*
X82599669Y-115241114D01*
X82612740Y-115310897D01*
X82586009Y-115376669D01*
X82545555Y-115410027D01*
X82533107Y-115416507D01*
X82528974Y-115419610D01*
X82528971Y-115419612D01*
X82358600Y-115547530D01*
X82354465Y-115550635D01*
X82200129Y-115712138D01*
X82074243Y-115896680D01*
X82058503Y-115930590D01*
X81984431Y-116090165D01*
X81980188Y-116099305D01*
X81920489Y-116314570D01*
X81896751Y-116536695D01*
X77638259Y-116536695D01*
X77724473Y-116483863D01*
X77724476Y-116483861D01*
X77727751Y-116481854D01*
X77730755Y-116479464D01*
X77730760Y-116479461D01*
X77890343Y-116352522D01*
X77982264Y-116279405D01*
X77984958Y-116276664D01*
X77984962Y-116276660D01*
X78207513Y-116050190D01*
X78207517Y-116050185D01*
X78210208Y-116047447D01*
X78408185Y-115789439D01*
X78573242Y-115509227D01*
X78702920Y-115210988D01*
X78705910Y-115200896D01*
X78769681Y-114985607D01*
X78795285Y-114899169D01*
X78848961Y-114578417D01*
X78863146Y-114253515D01*
X78845291Y-114026646D01*
X78837932Y-113933140D01*
X78837932Y-113933137D01*
X78837630Y-113929305D01*
X78772794Y-113610622D01*
X78669602Y-113302216D01*
X78529595Y-113008684D01*
X78526667Y-113004087D01*
X78441261Y-112870027D01*
X78354859Y-112734403D01*
X78352415Y-112731438D01*
X78150442Y-112486425D01*
X78150438Y-112486420D01*
X78147999Y-112483462D01*
X77912098Y-112259601D01*
X77650674Y-112066157D01*
X77445781Y-111950234D01*
X77370981Y-111907914D01*
X77370977Y-111907912D01*
X77367624Y-111906015D01*
X77067168Y-111781562D01*
X76963712Y-111752871D01*
X76757500Y-111695683D01*
X76757492Y-111695681D01*
X76753784Y-111694653D01*
X76432144Y-111646584D01*
X76428846Y-111646440D01*
X76317082Y-111641560D01*
X76317078Y-111641560D01*
X76315706Y-111641500D01*
X76117402Y-111641500D01*
X75875395Y-111656302D01*
X75871612Y-111657003D01*
X75871605Y-111657004D01*
X75749069Y-111679715D01*
X75555628Y-111715567D01*
X75373667Y-111772939D01*
X75249140Y-111812202D01*
X75249137Y-111812203D01*
X75245468Y-111813360D01*
X75241971Y-111814954D01*
X75241965Y-111814956D01*
X74953046Y-111946624D01*
X74953042Y-111946626D01*
X74949538Y-111948223D01*
X74946259Y-111950233D01*
X74946256Y-111950234D01*
X74702140Y-112099829D01*
X74672249Y-112118146D01*
X74669245Y-112120536D01*
X74669240Y-112120539D01*
X74585137Y-112187438D01*
X74417736Y-112320595D01*
X74415042Y-112323336D01*
X74415038Y-112323340D01*
X74192487Y-112549810D01*
X74192483Y-112549815D01*
X74189792Y-112552553D01*
X74087766Y-112685516D01*
X74014134Y-112781475D01*
X73991815Y-112810561D01*
X73881048Y-112998607D01*
X73854576Y-113043548D01*
X73826758Y-113090773D01*
X73697080Y-113389012D01*
X73695986Y-113392706D01*
X73695984Y-113392711D01*
X73682863Y-113437007D01*
X73604715Y-113700831D01*
X73551039Y-114021583D01*
X73536854Y-114346485D01*
X72136500Y-114346485D01*
X72136500Y-73706485D01*
X73536854Y-73706485D01*
X73538775Y-73730893D01*
X73561298Y-74017068D01*
X73562370Y-74030695D01*
X73627206Y-74349378D01*
X73730398Y-74657784D01*
X73732052Y-74661253D01*
X73732053Y-74661254D01*
X73737826Y-74673357D01*
X73870405Y-74951316D01*
X73872467Y-74954553D01*
X73872470Y-74954558D01*
X73924193Y-75035747D01*
X74045141Y-75225597D01*
X74047584Y-75228560D01*
X74047585Y-75228562D01*
X74244352Y-75467259D01*
X74252001Y-75476538D01*
X74487902Y-75700399D01*
X74749326Y-75893843D01*
X74819181Y-75933365D01*
X75029019Y-76052086D01*
X75029023Y-76052088D01*
X75032376Y-76053985D01*
X75332832Y-76178438D01*
X75436288Y-76207129D01*
X75642500Y-76264317D01*
X75642508Y-76264319D01*
X75646216Y-76265347D01*
X75967856Y-76313416D01*
X75971154Y-76313560D01*
X76082918Y-76318440D01*
X76082922Y-76318440D01*
X76084294Y-76318500D01*
X76282598Y-76318500D01*
X76524605Y-76303698D01*
X76528388Y-76302997D01*
X76528395Y-76302996D01*
X76728459Y-76265916D01*
X76844372Y-76244433D01*
X77053682Y-76178438D01*
X77150860Y-76147798D01*
X77150863Y-76147797D01*
X77154532Y-76146640D01*
X77158029Y-76145046D01*
X77158035Y-76145044D01*
X77446954Y-76013376D01*
X77446958Y-76013374D01*
X77450462Y-76011777D01*
X77453744Y-76009766D01*
X77724473Y-75843863D01*
X77724476Y-75843861D01*
X77727751Y-75841854D01*
X77730755Y-75839464D01*
X77730760Y-75839461D01*
X77890343Y-75712522D01*
X77982264Y-75639405D01*
X77984958Y-75636664D01*
X77984962Y-75636660D01*
X78207513Y-75410190D01*
X78207517Y-75410185D01*
X78210208Y-75407447D01*
X78377253Y-75189750D01*
X78405835Y-75152502D01*
X78405837Y-75152498D01*
X78408185Y-75149439D01*
X78550680Y-74907530D01*
X78571289Y-74872543D01*
X78571291Y-74872540D01*
X78573242Y-74869227D01*
X78702920Y-74570988D01*
X78705910Y-74560896D01*
X78766098Y-74357701D01*
X78795285Y-74259169D01*
X78848961Y-73938417D01*
X78863146Y-73613515D01*
X78845291Y-73386646D01*
X78837932Y-73293140D01*
X78837932Y-73293137D01*
X78837630Y-73289305D01*
X78772794Y-72970622D01*
X78669602Y-72662216D01*
X78529595Y-72368684D01*
X78354859Y-72094403D01*
X78329760Y-72063955D01*
X78150442Y-71846425D01*
X78150438Y-71846420D01*
X78147999Y-71843462D01*
X77912098Y-71619601D01*
X77650674Y-71426157D01*
X77445781Y-71310234D01*
X77370981Y-71267914D01*
X77370977Y-71267912D01*
X77367624Y-71266015D01*
X77067168Y-71141562D01*
X76931724Y-71104000D01*
X76757500Y-71055683D01*
X76757492Y-71055681D01*
X76753784Y-71054653D01*
X76432144Y-71006584D01*
X76428846Y-71006440D01*
X76317082Y-71001560D01*
X76317078Y-71001560D01*
X76315706Y-71001500D01*
X76117402Y-71001500D01*
X75875395Y-71016302D01*
X75871612Y-71017003D01*
X75871605Y-71017004D01*
X75715511Y-71045935D01*
X75555628Y-71075567D01*
X75371058Y-71133762D01*
X75249140Y-71172202D01*
X75249137Y-71172203D01*
X75245468Y-71173360D01*
X75241971Y-71174954D01*
X75241965Y-71174956D01*
X74953046Y-71306624D01*
X74953042Y-71306626D01*
X74949538Y-71308223D01*
X74946259Y-71310233D01*
X74946256Y-71310234D01*
X74787360Y-71407606D01*
X74672249Y-71478146D01*
X74669245Y-71480536D01*
X74669240Y-71480539D01*
X74640372Y-71503502D01*
X74417736Y-71680595D01*
X74415042Y-71683336D01*
X74415038Y-71683340D01*
X74192487Y-71909810D01*
X74192483Y-71909815D01*
X74189792Y-71912553D01*
X74099545Y-72030165D01*
X74004701Y-72153768D01*
X73991815Y-72170561D01*
X73826758Y-72450773D01*
X73697080Y-72749012D01*
X73604715Y-73060831D01*
X73551039Y-73381583D01*
X73536854Y-73706485D01*
X72136500Y-73706485D01*
X72136500Y-69214500D01*
X72156502Y-69146379D01*
X72210158Y-69099886D01*
X72262500Y-69088500D01*
X175133500Y-69088500D01*
X175201621Y-69108502D01*
G37*
%TD.AperFunction*%
%TD*%
M02*
