M48
; DRILL file {KiCad (6.0.10-0)} date 2023 January 27, Friday 21:07:14
; FORMAT={-:-/ absolute / inch / decimal}
; #@! TF.CreationDate,2023-01-27T21:07:14+01:00
; #@! TF.GenerationSoftware,Kicad,Pcbnew,(6.0.10-0)
; #@! TF.FileFunction,Plated,1,2,PTH
FMAT,2
INCH
; #@! TA.AperFunction,Plated,PTH,ComponentDrill
T1C0.0315
; #@! TA.AperFunction,Plated,PTH,ComponentDrill
T2C0.0394
%
G90
G05
T1
X4.4724Y-4.44
X4.7676Y-4.44
T2
X3.2779Y-2.7894
X3.2779Y-2.8894
X3.2779Y-2.9894
X3.2779Y-3.0894
X3.2779Y-3.1894
X3.2779Y-3.2894
X3.2779Y-3.3894
X3.2779Y-3.4894
X3.2779Y-3.5894
X3.2779Y-3.6894
X3.2779Y-3.7894
X3.2779Y-3.8894
X3.2779Y-3.9894
X3.2779Y-4.0894
X3.2779Y-4.1894
X3.2779Y-4.2894
X3.2779Y-4.3894
X3.2779Y-4.4894
X3.2779Y-4.5894
X4.2779Y-2.7894
X4.2779Y-2.8894
X4.2779Y-2.9894
X4.2779Y-3.0894
X4.2779Y-3.1894
X4.2779Y-3.2894
X4.2779Y-3.3894
X4.2779Y-3.4894
X4.2779Y-3.5894
X4.2779Y-3.6894
X4.2779Y-3.7894
X4.2779Y-3.8894
X4.2779Y-3.9894
X4.2779Y-4.0894
X4.2779Y-4.1894
X4.2779Y-4.2894
X4.2779Y-4.3894
X4.2779Y-4.4894
X4.2779Y-4.5894
X4.5806Y-4.1723
X4.5806Y-4.2723
X4.6806Y-4.1723
X4.6806Y-4.2723
X4.7806Y-4.1723
X4.7806Y-4.2723
X4.8806Y-4.1723
X4.8806Y-4.2723
X5.51Y-3.0599
X5.61Y-3.0599
X5.71Y-3.0599
X5.81Y-3.0599
X5.91Y-3.0599
X6.01Y-3.0599
X6.11Y-3.0599
X6.21Y-3.0599
T0
M30
